<svg width="38" height="38" viewBox="0 0 38 38" fill="none" xmlns="http://www.w3.org/2000/svg">
<g clip-path="url(#clip0)">
<path d="M4.37603 13.9195C4.48446 14.0279 4.62681 14.0824 4.76916 14.0824C4.91151 14.0824 5.05386 14.0282 5.16258 13.9195C5.37973 13.7023 5.37973 13.3501 5.16258 13.1329L3.81214 11.7825L5.16258 10.4323C5.37973 10.2149 5.37973 9.86292 5.16258 9.64577C4.94543 9.42862 4.59318 9.42862 4.37603 9.64577L2.63246 11.3893C2.52809 11.4937 2.46953 11.6352 2.46953 11.7825C2.46953 11.93 2.52809 12.0715 2.63246 12.1759L4.37603 13.9195Z" fill="#1D1D1D"/>
<path d="M9.8949 11.7825L8.54446 13.1329C8.32731 13.35 8.32731 13.7023 8.54475 13.9194C8.65318 14.0279 8.79553 14.0824 8.93788 14.0824C9.08023 14.0824 9.22258 14.0279 9.33101 13.9194L11.0749 12.1756C11.292 11.9584 11.292 11.6062 11.0749 11.3893L9.33101 9.64547C9.11386 9.42832 8.7619 9.42832 8.54475 9.64547C8.32731 9.8629 8.32731 10.2149 8.54475 10.432L9.8949 11.7825Z" fill="#1D1D1D"/>
<path d="M6.02448 14.0439C6.09117 14.07 6.16017 14.0824 6.22772 14.0824C6.44979 14.0824 6.65941 13.9485 6.74551 13.7296L8.11537 10.2422C8.22786 9.95632 8.08696 9.63365 7.8011 9.52116C7.51553 9.40896 7.19256 9.54957 7.08037 9.83543L5.71021 13.3229C5.59802 13.6087 5.73863 13.9317 6.02448 14.0439Z" fill="#1D1D1D"/>
<path d="M3.34043 17.3451H7.08704C7.39406 17.3451 7.6431 17.0961 7.6431 16.7888C7.6431 16.4818 7.39406 16.2327 7.08704 16.2327H3.34043C3.03311 16.2327 2.78436 16.4818 2.78436 16.7888C2.78436 17.0961 3.03311 17.3451 3.34043 17.3451Z" fill="#1D1D1D"/>
<path d="M15.7162 16.2327H9.12923C8.82221 16.2327 8.57317 16.4818 8.57317 16.7888C8.57317 17.0961 8.82221 17.3451 9.12923 17.3451H15.7162C16.0235 17.3451 16.2725 17.0961 16.2725 16.7888C16.2725 16.4818 16.0235 16.2327 15.7162 16.2327Z" fill="#1D1D1D"/>
<path d="M3.34043 19.6909H4.93642C5.24345 19.6909 5.49249 19.4419 5.49249 19.1346C5.49249 18.8275 5.24345 18.5785 4.93642 18.5785H3.34043C3.03311 18.5785 2.78436 18.8275 2.78436 19.1346C2.78436 19.4419 3.03311 19.6909 3.34043 19.6909Z" fill="#1D1D1D"/>
<path d="M13.6815 18.5785C13.3742 18.5785 13.1255 18.8275 13.1255 19.1346C13.1255 19.4419 13.3742 19.6909 13.6815 19.6909H14.6533C14.9606 19.6909 15.2097 19.4419 15.2097 19.1346C15.2097 18.8275 14.9606 18.5785 14.6533 18.5785H13.6815Z" fill="#1D1D1D"/>
<path d="M12.2177 19.1346C12.2177 18.8275 11.9687 18.5785 11.6617 18.5785H6.88788C6.58057 18.5785 6.33182 18.8275 6.33182 19.1346C6.33182 19.4419 6.58057 19.6909 6.88788 19.6909H11.6617C11.9687 19.6909 12.2177 19.4419 12.2177 19.1346Z" fill="#1D1D1D"/>
<path d="M15.8608 19.1346C15.8608 19.4419 16.1099 19.6909 16.4169 19.6909H18.2373C18.5446 19.6909 18.7936 19.4419 18.7936 19.1346C18.7936 18.8275 18.5446 18.5785 18.2373 18.5785H16.4169C16.1099 18.5785 15.8608 18.8275 15.8608 19.1346Z" fill="#1D1D1D"/>
<path d="M12.832 12.2287H14.7522C15.0595 12.2287 15.3085 11.9796 15.3085 11.6723C15.3085 11.3653 15.0595 11.1163 14.7522 11.1163H12.832C12.5247 11.1163 12.2757 11.3653 12.2757 11.6723C12.2757 11.9796 12.5247 12.2287 12.832 12.2287Z" fill="#1D1D1D"/>
<path d="M16.9028 12.2287H28.6187C28.926 12.2287 29.1747 11.9796 29.1747 11.6723C29.1747 11.3653 28.926 11.1163 28.6187 11.1163H16.9028C16.5955 11.1163 16.3465 11.3653 16.3465 11.6723C16.3465 11.9796 16.5955 12.2287 16.9028 12.2287Z" fill="#1D1D1D"/>
<path d="M26.8392 13.5632H22.0932C21.7862 13.5632 21.5371 13.8122 21.5371 14.1195C21.5371 14.4265 21.7862 14.6756 22.0932 14.6756H26.8392C27.1462 14.6756 27.3952 14.4265 27.3952 14.1195C27.3952 13.8122 27.1462 13.5632 26.8392 13.5632Z" fill="#1D1D1D"/>
<path d="M20.3137 13.5632H18.6823C18.375 13.5632 18.1263 13.8122 18.1263 14.1195C18.1263 14.4265 18.375 14.6756 18.6823 14.6756H20.3137C20.621 14.6756 20.8697 14.4265 20.8697 14.1195C20.8697 13.8122 20.621 13.5632 20.3137 13.5632Z" fill="#1D1D1D"/>
<path d="M12.832 14.6756H16.8286C17.1356 14.6756 17.3846 14.4265 17.3846 14.1195C17.3846 13.8122 17.1356 13.5632 16.8286 13.5632H12.832C12.5247 13.5632 12.2757 13.8122 12.2757 14.1195C12.2757 14.4265 12.5247 14.6756 12.832 14.6756Z" fill="#1D1D1D"/>
<path d="M11.6686 20.9045H7.9223C7.61499 20.9045 7.36595 21.1535 7.36595 21.4605C7.36595 21.7676 7.61499 22.0166 7.9223 22.0166H11.6686C11.9756 22.0166 12.2247 21.7676 12.2247 21.4605C12.2247 21.1535 11.9756 20.9045 11.6686 20.9045Z" fill="#1D1D1D"/>
<path d="M6.21873 20.9045H3.34043C3.03311 20.9045 2.78436 21.1535 2.78436 21.4605C2.78436 21.7676 3.03311 22.0166 3.34043 22.0166H6.21873C6.52605 22.0166 6.7748 21.7676 6.7748 21.4605C6.7748 21.1535 6.52605 20.9045 6.21873 20.9045Z" fill="#1D1D1D"/>
<path d="M18.4599 20.9045H13.5658C13.2585 20.9045 13.0098 21.1535 13.0098 21.4605C13.0098 21.7676 13.2585 22.0166 13.5658 22.0166H18.4599C18.767 22.0166 19.016 21.7676 19.016 21.4605C19.016 21.1535 18.767 20.9045 18.4599 20.9045Z" fill="#1D1D1D"/>
<path d="M25.0785 18.0476H22.4023C22.0952 18.0476 21.8462 18.2966 21.8462 18.6037C21.8462 18.911 22.0952 19.16 22.4023 19.16H25.0785C25.3858 19.16 25.6346 18.911 25.6346 18.6037C25.6346 18.2966 25.3858 18.0476 25.0785 18.0476Z" fill="#1D1D1D"/>
<path d="M29.7224 19.16H33.5003C33.8077 19.16 34.0567 18.911 34.0567 18.6037C34.0567 18.2966 33.8077 18.0476 33.5003 18.0476H29.7224C29.4151 18.0476 29.1664 18.2966 29.1664 18.6037C29.1664 18.911 29.4154 19.16 29.7224 19.16Z" fill="#1D1D1D"/>
<path d="M27.8333 18.0476H26.9676C26.6603 18.0476 26.4113 18.2966 26.4113 18.6037C26.4113 18.911 26.6603 19.16 26.9676 19.16H27.8333C28.1406 19.16 28.3894 18.911 28.3894 18.6037C28.3894 18.2966 28.1406 18.0476 27.8333 18.0476Z" fill="#1D1D1D"/>
<path d="M22.4023 25.2205H25.0785C25.3858 25.2205 25.6346 24.9717 25.6346 24.6644C25.6346 24.3574 25.3858 24.1083 25.0785 24.1083H22.4023C22.0952 24.1083 21.8462 24.3574 21.8462 24.6644C21.8462 24.9717 22.0952 25.2205 22.4023 25.2205Z" fill="#1D1D1D"/>
<path d="M29.7224 25.2205H33.5003C33.8077 25.2205 34.0567 24.9717 34.0567 24.6644C34.0567 24.3574 33.8077 24.1083 33.5003 24.1083H29.7224C29.4151 24.1083 29.1664 24.3574 29.1664 24.6644C29.1664 24.9717 29.4154 25.2205 29.7224 25.2205Z" fill="#1D1D1D"/>
<path d="M26.9676 25.2205H27.8333C28.1406 25.2205 28.3897 24.9717 28.3897 24.6644C28.3897 24.3574 28.1406 24.1083 27.8333 24.1083H26.9676C26.6603 24.1083 26.4115 24.3574 26.4115 24.6644C26.4115 24.9717 26.6603 25.2205 26.9676 25.2205Z" fill="#1D1D1D"/>
<path d="M25.0785 30.1691H22.4023C22.0952 30.1691 21.8462 30.4181 21.8462 30.7251C21.8462 31.0322 22.0952 31.2812 22.4023 31.2812H25.0785C25.3858 31.2812 25.6346 31.0322 25.6346 30.7251C25.6346 30.4181 25.3858 30.1691 25.0785 30.1691Z" fill="#1D1D1D"/>
<path d="M33.5003 30.1691H29.7224C29.4151 30.1691 29.1664 30.4181 29.1664 30.7251C29.1664 31.0322 29.4151 31.2812 29.7224 31.2812H33.5003C33.8077 31.2812 34.0567 31.0322 34.0567 30.7251C34.0567 30.4181 33.8077 30.1691 33.5003 30.1691Z" fill="#1D1D1D"/>
<path d="M27.8333 30.1691H26.9676C26.6603 30.1691 26.4113 30.4181 26.4113 30.7251C26.4113 31.0322 26.6603 31.2812 26.9676 31.2812H27.8333C28.1406 31.2812 28.3894 31.0322 28.3894 30.7251C28.3894 30.4181 28.1406 30.1691 27.8333 30.1691Z" fill="#1D1D1D"/>
<path d="M35.5527 0.0741577H2.44778C1.09821 0.0741577 0 1.17208 0 2.52194V29.4313C0 30.7808 1.09821 31.8788 2.44778 31.8788H4.5407C4.84772 31.8788 5.09676 31.63 5.09676 31.3227C5.09676 31.0157 4.84772 30.7666 4.5407 30.7666H2.44778C1.71139 30.7666 1.11242 30.1677 1.11242 29.4313V27.3215H21.3739V28.28H20.933C20.3296 28.28 19.8391 28.7705 19.8391 29.3739V30.7666H7.92201C7.61499 30.7666 7.36595 31.0157 7.36595 31.3227C7.36595 31.63 7.61499 31.8788 7.92201 31.8788H13.2693V33.8734H11.5901C10.4698 33.8734 9.5586 34.7849 9.5586 35.9048V37.1063C9.5586 37.6174 9.97434 38.0331 10.4855 38.0331H27.4723C27.9835 38.0331 28.3992 37.6174 28.3992 37.1063V35.9048C28.3992 34.7849 27.488 33.8734 26.3678 33.8734H24.6886V33.1703H34.9699C35.573 33.1703 36.0635 32.6798 36.0635 32.0765V31.8147C37.1475 31.563 37.9578 30.5904 37.9578 29.4313L37.9999 2.52165C38.0001 1.17208 36.9022 0.0741577 35.5527 0.0741577ZM20.9515 25.9975V23.3317H34.9514V25.9975H20.9515ZM22.486 22.2193V21.0492H33.4165V22.2193H22.486ZM33.4165 27.1096V28.28H22.486V27.1096H33.4165ZM14.3814 31.8788H19.8391V32.0768C19.8391 32.6798 20.3296 33.1703 20.933 33.1703H23.5764V33.8734H14.3814V31.8788ZM26.3681 34.9858C26.8748 34.9858 27.2871 35.3981 27.2871 35.9048V36.921H10.6707V35.9048C10.6707 35.3981 11.0833 34.9858 11.5901 34.9858H26.3681ZM34.9514 32.0579H20.9515V29.3924H34.9514V32.0579ZM36.8457 29.4313C36.8457 29.9699 36.5245 30.4341 36.0638 30.6449V29.3736C36.0638 28.7705 35.573 28.28 34.9699 28.28H34.529V27.3215H36.8457V29.4313ZM36.8457 26.2094H36.0455C36.0568 26.1465 36.0638 23.3131 36.0638 23.3131C36.0638 22.7098 35.573 22.2193 34.9699 22.2193H34.529V21.0492H34.9699C35.573 21.0492 36.0638 20.5583 36.0638 19.9553V17.2524C36.0638 16.6494 35.573 16.1585 34.9699 16.1585H31.8287C31.5213 16.1585 31.2726 16.4076 31.2726 16.7149C31.2726 17.0219 31.5213 17.2709 31.8287 17.2709H34.9514V19.9367H20.9515V17.2709H28.3682C28.6755 17.2709 28.9243 17.0219 28.9243 16.7149C28.9243 16.4076 28.6755 16.1585 28.3682 16.1585H20.933C20.3296 16.1585 19.8391 16.6494 19.8391 17.2524V19.9553C19.8391 20.5583 20.3296 21.0492 20.933 21.0492H21.3739V22.2193H20.933C20.3296 22.2193 19.8391 22.7101 19.8391 23.3131C19.8391 23.3131 19.8461 26.1465 19.8574 26.2094H1.11242V7.63928H36.8457V26.2094ZM36.8457 6.52687H1.15329V2.52165C1.15329 1.78554 1.75226 1.18657 2.48866 1.18657H35.5103C36.2467 1.18657 36.8457 1.78554 36.8457 2.52194V6.52687Z" fill="#1D1D1D"/>
<path d="M4.10148 2.2088C3.20157 2.2088 2.46953 2.94084 2.46953 3.84075C2.46953 4.74066 3.20157 5.47299 4.10148 5.47299C5.00138 5.47299 5.73372 4.74066 5.73372 3.84075C5.73372 2.94084 5.00138 2.2088 4.10148 2.2088ZM4.10148 4.36057C3.81504 4.36057 3.58165 4.12748 3.58165 3.84075C3.58165 3.55431 3.81504 3.32093 4.10148 3.32093C4.38821 3.32093 4.6213 3.55431 4.6213 3.84075C4.6213 4.12748 4.38821 4.36057 4.10148 4.36057Z" fill="#1D1D1D"/>
<path d="M8.25686 2.2088C7.35695 2.2088 6.62462 2.94084 6.62462 3.84075C6.62462 4.74066 7.35695 5.47299 8.25686 5.47299C9.15676 5.47299 9.88881 4.74066 9.88881 3.84075C9.88881 2.94084 9.15647 2.2088 8.25686 2.2088ZM8.25686 4.36057C7.97013 4.36057 7.73703 4.12748 7.73703 3.84075C7.73703 3.55431 7.97013 3.32093 8.25686 3.32093C8.5433 3.32093 8.77668 3.55431 8.77668 3.84075C8.77668 4.12748 8.5433 4.36057 8.25686 4.36057Z" fill="#1D1D1D"/>
<path d="M12.412 2.2088C11.5121 2.2088 10.78 2.94084 10.78 3.84075C10.78 4.74066 11.5121 5.47299 12.412 5.47299C13.3119 5.47299 14.0442 4.74066 14.0442 3.84075C14.0442 2.94084 13.3119 2.2088 12.412 2.2088ZM12.412 4.36057C12.1255 4.36057 11.8921 4.12748 11.8921 3.84075C11.8921 3.55431 12.1255 3.32093 12.412 3.32093C12.6987 3.32093 12.9318 3.55431 12.9318 3.84075C12.9318 4.12748 12.6987 4.36057 12.412 4.36057Z" fill="#1D1D1D"/>
</g>
<defs>
<clipPath id="clip0">
<rect width="38" height="38" fill="white"/>
</clipPath>
</defs>
</svg>
