<svg width="275" height="226" viewBox="0 0 275 226" fill="none" xmlns="http://www.w3.org/2000/svg">
<path d="M21.6002 141.661C21.5657 141.254 21.413 140.885 21.1794 140.584C21.2188 140.052 21.2163 139.512 21.1709 138.976C20.7015 133.429 15.8068 129.298 10.2599 129.768C4.71303 130.237 0.582151 135.132 1.0516 140.679C1.097 141.215 1.18536 141.748 1.31364 142.266C1.13408 142.602 1.04564 142.991 1.08007 143.398C1.16584 144.411 1.98188 145.191 2.96577 145.263C3.84395 149.473 7.75787 152.473 12.1501 152.101C16.5424 151.729 19.8966 148.115 20.0546 143.816C21.0126 143.58 21.6859 142.675 21.6002 141.661ZM1.84689 143.333C1.799 142.767 2.13081 142.255 2.62956 142.049L2.81346 144.221C2.82045 144.304 2.82886 144.386 2.83816 144.468C2.30992 144.35 1.89489 143.9 1.84689 143.333ZM12.0853 151.334C7.7615 151.7 3.9462 148.48 3.58027 144.156L3.2447 140.192C3.19458 139.6 3.46083 139.05 3.95697 138.72C4.44823 138.394 5.05199 138.362 5.57217 138.635C7.27112 139.526 9.18426 139.911 11.1046 139.748C13.0251 139.586 14.8463 138.885 16.3715 137.721C16.8383 137.365 17.4388 137.294 17.978 137.533C18.5224 137.775 18.8774 138.272 18.9275 138.865L19.2631 142.829C19.629 147.153 16.4091 150.968 12.0853 151.334ZM18.2897 136.83C17.4898 136.475 16.5982 136.58 15.9046 137.109C14.4961 138.184 12.8139 138.832 11.0397 138.982C9.26553 139.132 7.49848 138.776 5.9295 137.953C5.15677 137.548 4.26015 137.595 3.53121 138.079C2.79744 138.566 2.40361 139.38 2.47784 140.257L2.56269 141.259C2.33827 141.322 2.13065 141.423 1.94585 141.552C1.88799 141.243 1.84498 140.929 1.81832 140.614C1.3847 135.49 5.2007 130.968 10.3248 130.534C15.4489 130.101 19.9705 133.917 20.4042 139.041C20.4308 139.356 20.4412 139.672 20.4361 139.987C20.2322 139.89 20.0109 139.827 19.7792 139.802L19.6943 138.8C19.62 137.923 19.095 137.187 18.2897 136.83ZM20.047 143.012C20.0424 142.929 20.0369 142.847 20.0299 142.764L19.846 140.592C20.3724 140.711 20.7855 141.16 20.8334 141.726C20.8814 142.293 20.5479 142.806 20.047 143.012Z" fill="#1D1D1D"/>
<path d="M7.9697 144.456C8.326 144.425 8.59039 144.112 8.56024 143.756C8.53008 143.4 8.2168 143.135 7.8605 143.165C7.5042 143.196 7.23981 143.509 7.26996 143.865C7.30012 144.221 7.6134 144.486 7.9697 144.456Z" fill="#1D1D1D"/>
<path d="M15.1068 143.852C15.4631 143.821 15.7275 143.508 15.6974 143.152C15.6672 142.796 15.3539 142.531 14.9976 142.561C14.6413 142.592 14.377 142.905 14.4071 143.261C14.4373 143.617 14.7505 143.882 15.1068 143.852Z" fill="#1D1D1D"/>
<path d="M13.7534 141.652C13.6163 141.815 13.6369 142.057 13.7993 142.194C13.9617 142.331 14.2044 142.311 14.3414 142.149C14.6528 141.78 15.2061 141.733 15.575 142.044C15.6562 142.113 15.7574 142.142 15.8556 142.133C15.9537 142.125 16.0487 142.079 16.1172 141.998C16.2543 141.836 16.2337 141.593 16.0713 141.456C15.3782 140.871 14.3384 140.959 13.7534 141.652Z" fill="#1D1D1D"/>
<path d="M7.73466 141.678C7.29689 141.715 6.89971 141.921 6.61632 142.256C6.47928 142.419 6.49983 142.661 6.66221 142.799C6.82459 142.935 7.06732 142.915 7.20441 142.753C7.35522 142.574 7.56655 142.465 7.79951 142.445C8.03251 142.425 8.25919 142.497 8.43789 142.648C8.51914 142.717 8.62035 142.746 8.7185 142.738C8.8166 142.729 8.91158 142.684 8.9801 142.602C9.11714 142.44 9.09664 142.197 8.93421 142.06C8.59852 141.777 8.17249 141.641 7.73466 141.678Z" fill="#1D1D1D"/>
<path d="M13.1935 145.922C12.9818 145.94 12.8247 146.126 12.8426 146.338C12.8973 146.984 12.4161 147.554 11.77 147.609C11.1239 147.663 10.5538 147.182 10.4991 146.536C10.4812 146.325 10.295 146.167 10.0833 146.185C9.87155 146.203 9.71442 146.389 9.73234 146.601C9.8228 147.67 10.766 148.466 11.8349 148.376C12.9038 148.285 13.6998 147.342 13.6094 146.273C13.5914 146.061 13.4052 145.904 13.1935 145.922Z" fill="#1D1D1D"/>
<path d="M190.983 32.3024C191.428 32.3908 191.86 32.1017 191.949 31.6566C192.037 31.2116 191.748 30.7791 191.303 30.6907C190.858 30.6023 190.425 30.8914 190.337 31.3365C190.248 31.7816 190.538 32.214 190.983 32.3024Z" fill="#1D1D1D"/>
<path d="M199.898 34.0733C200.343 34.1617 200.776 33.8726 200.864 33.4275C200.953 32.9824 200.663 32.55 200.218 32.4616C199.773 32.3732 199.341 32.6623 199.252 33.1074C199.164 33.5524 199.453 33.9849 199.898 34.0733Z" fill="#1D1D1D"/>
<path d="M191.656 28.9124C191.216 28.825 190.768 28.9142 190.395 29.1636C190.193 29.2983 190.139 29.5709 190.274 29.7725C190.409 29.9741 190.681 30.0282 190.883 29.8934C191.061 29.7743 191.275 29.7317 191.485 29.7735C191.695 29.8152 191.876 29.9363 191.996 30.1145C192.063 30.2153 192.165 30.2792 192.275 30.3011C192.385 30.323 192.504 30.3028 192.604 30.2355C192.806 30.1007 192.86 29.8281 192.725 29.6266C192.476 29.2535 192.096 28.9998 191.656 28.9124Z" fill="#1D1D1D"/>
<path d="M199.31 30.9345C199.109 31.0693 199.055 31.3418 199.189 31.5434C199.324 31.745 199.597 31.7991 199.798 31.6644C200.166 31.4184 200.665 31.5177 200.911 31.8854C200.979 31.9862 201.08 32.0501 201.191 32.072C201.301 32.0939 201.419 32.0737 201.52 32.0064C201.722 31.8717 201.776 31.5991 201.641 31.3975C201.126 30.6274 200.081 30.4197 199.31 30.9345Z" fill="#1D1D1D"/>
<path d="M195.75 35.9685C195.484 36.146 195.166 36.2095 194.853 36.1473C194.539 36.0851 194.269 35.9046 194.092 35.6391C193.957 35.4376 193.684 35.3835 193.483 35.5182C193.281 35.6529 193.227 35.9255 193.362 36.1271C193.67 36.5875 194.138 36.9005 194.682 37.0084C195.225 37.1163 195.778 37.0062 196.238 36.6984C196.44 36.5637 196.494 36.2911 196.359 36.0895C196.224 35.888 195.952 35.8338 195.75 35.9685Z" fill="#1D1D1D"/>
<path d="M205.842 33.9846C206.074 32.8151 205.422 31.672 204.351 31.2478L205.782 24.0453C205.967 23.1109 205.674 22.1523 204.998 21.4811C204.363 20.8507 203.477 20.5602 202.599 20.6864L200.078 19.2321C198.141 18.1144 195.969 17.6078 193.797 17.767C190.954 17.9753 189.096 19.2412 188.413 21.4296C188.147 21.6661 187.917 21.9455 187.736 22.2603L187.403 22.8392C187.224 23.1501 187.279 23.5248 187.539 23.7718C187.798 24.0188 188.176 24.0542 188.477 23.8598C188.58 23.7934 188.688 23.7417 188.799 23.7026L187.948 27.9897C186.796 27.9723 185.757 28.7795 185.524 29.949C185.283 31.1654 185.997 32.3531 187.146 32.7333C187.117 34.4246 187.595 36.0849 188.543 37.526C189.782 39.4075 191.672 40.6835 193.865 41.1192C193.865 41.1192 193.866 41.1193 193.866 41.1193C196.056 41.5542 198.285 41.1101 200.142 39.8689C201.592 38.8994 202.679 37.5341 203.293 35.9389C204.494 36.019 205.601 35.1962 205.842 33.9846ZM204.38 22.1041C204.853 22.5743 205.05 23.2195 204.92 23.8742L203.801 29.5083C202.506 29.0352 201.71 27.673 201.987 26.2794L202.892 21.5385C203.445 21.5044 203.975 21.7026 204.38 22.1041ZM188.364 22.9289L188.497 22.698C188.845 22.0927 189.436 21.6627 190.119 21.5182C190.802 21.3737 191.517 21.5274 192.081 21.9398C193.264 22.806 194.905 22.7908 196.072 21.9029L196.203 21.8035C196.396 21.6567 196.433 21.3813 196.286 21.1884C196.139 20.9954 195.864 20.958 195.671 21.1048L195.54 21.2042C194.68 21.8586 193.471 21.8697 192.599 21.2315C191.835 20.6718 190.865 20.4632 189.938 20.6594C189.853 20.6772 189.77 20.6994 189.688 20.7235C190.454 19.4887 191.851 18.7898 193.862 18.6425C195.858 18.4962 197.856 18.9631 199.64 19.9924L202.03 21.3715L201.622 23.6028C200.172 24.9277 198.299 25.6475 196.331 25.6319C194.315 25.616 192.412 24.8311 190.971 23.4219C190.267 22.7335 189.242 22.5534 188.364 22.9289ZM186.385 30.12C186.523 29.4278 187.102 28.9341 187.772 28.8734L187.309 31.207C187.269 31.4086 187.236 31.6105 187.211 31.8125C186.603 31.5053 186.246 30.8201 186.385 30.12ZM199.654 39.139C197.992 40.2499 195.997 40.6473 194.037 40.2581C194.036 40.2581 194.036 40.258 194.036 40.258C192.075 39.8685 190.385 38.7267 189.277 37.0432C188.171 35.3634 187.778 33.3515 188.17 31.378L189.701 23.6706C189.941 23.7372 190.167 23.8642 190.357 24.0496C191.961 25.6183 194.08 26.4921 196.324 26.5098C198.145 26.5242 199.893 25.9734 201.358 24.94L201.126 26.1083C200.755 27.9774 201.859 29.8025 203.629 30.3764L202.835 34.3755C202.445 36.3363 201.315 38.028 199.654 39.139ZM203.576 35.0617C203.621 34.8919 203.661 34.7203 203.696 34.5466L204.175 32.1315C204.771 32.4435 205.118 33.1213 204.981 33.8136C204.842 34.5119 204.253 35.0081 203.576 35.0617Z" fill="#1D1D1D"/>
<path d="M168.011 34.6479C148.361 22.6226 124.894 18.4601 102.306 22.9931C79.7184 27.5261 59.6749 40.4203 46.1853 59.0963C32.6958 77.7723 26.755 100.853 29.5514 123.721C32.3478 146.589 43.6753 167.558 61.2676 182.433C78.86 197.308 101.42 204.992 124.435 203.949C143.391 203.089 161.505 196.36 176.342 184.846M211.668 115.463C211.261 128.57 208.045 141.315 202.367 152.889" stroke="#C1C1C1" stroke-width="0.507879" stroke-dasharray="3.05 3.05"/>
<path d="M6.69765 119.995C5.78195 102.064 9.13088 84.1705 16.4696 67.7839C23.8084 51.3973 34.9279 36.9842 48.9157 25.7272" stroke="#C1C1C1" stroke-width="0.507879" stroke-dasharray="3.05 3.05"/>
<path d="M215.153 52.7833C228.162 72.9532 234.446 96.7258 233.104 120.689C231.762 144.653 222.862 167.575 207.682 186.166" stroke="#C1C1C1" stroke-width="0.507879" stroke-dasharray="3.05 3.05"/>
<path d="M190.838 173.492C191.767 174.191 193.091 174.004 193.79 173.075C193.933 172.885 194.203 172.846 194.393 172.99C194.584 173.133 194.622 173.403 194.479 173.593C193.986 174.247 193.274 174.64 192.521 174.746C191.768 174.853 190.975 174.673 190.32 174.18C190.13 174.037 190.092 173.767 190.235 173.577C190.378 173.387 190.648 173.349 190.838 173.492Z" fill="#1D1D1D"/>
<path d="M183.26 178.879C184.103 177.632 183.746 174.806 183.216 171.906C182.723 171.559 182.368 171.017 182.277 170.374C182.197 169.81 182.335 169.264 182.625 168.821C182.059 165.866 181.701 163.887 182.385 161.917C182.851 160.572 183.745 159.378 185.041 158.366C186.552 157.187 188.362 156.457 190.276 156.256C191.957 156.079 193.624 156.639 194.883 157.794C196.282 157.681 197.65 158.257 198.493 159.328C198.566 159.42 198.637 159.515 198.704 159.61C199.908 161.315 200.112 163.315 200.388 166.311C200.789 166.656 201.072 167.142 201.152 167.707C201.243 168.349 201.052 168.967 200.675 169.438C200.969 172.372 201.41 175.185 202.565 176.151C202.675 176.242 202.732 176.381 202.718 176.523C202.704 176.665 202.621 176.79 202.497 176.859C201.432 177.443 200.364 177.749 199.381 177.888C198.36 178.032 197.43 177.996 196.691 177.904C195.407 177.745 194.469 177.399 194.147 177.267C193.751 177.391 193.34 177.486 192.917 177.545C192.493 177.605 192.073 177.629 191.658 177.619C191.385 177.835 190.579 178.427 189.39 178.936C188.477 179.327 187.611 179.552 186.815 179.665C185.488 179.852 184.355 179.728 183.522 179.541C183.383 179.51 183.269 179.412 183.216 179.279C183.164 179.147 183.18 178.997 183.26 178.879ZM184.214 170.999L183.915 168.881C183.914 168.876 183.913 168.87 183.913 168.864L183.904 168.799C183.373 169.058 183.043 169.638 183.13 170.254C183.218 170.874 183.702 171.343 184.29 171.44C184.261 171.294 184.236 171.147 184.214 170.999ZM198 160.107C197.942 160.024 197.88 159.941 197.817 159.861C197.118 158.975 195.958 158.519 194.788 158.67C194.787 158.671 194.784 158.671 194.782 158.671C194.652 158.687 194.522 158.642 194.429 158.551C193.339 157.48 191.858 156.956 190.366 157.113C188.613 157.297 186.955 157.966 185.571 159.045C184.408 159.953 183.61 161.014 183.199 162.199C182.651 163.777 182.855 165.379 183.367 168.11C183.496 168.034 183.634 167.97 183.779 167.92L183.718 167.486C183.685 167.251 183.849 167.033 184.084 166.999C184.32 166.966 184.538 167.13 184.571 167.366L184.708 168.334C190.593 167.567 193.373 164.287 194.097 163.282C194.182 163.163 194.321 163.096 194.467 163.103C194.612 163.11 194.744 163.19 194.818 163.315C195.651 164.735 196.845 165.371 198.577 165.316C198.797 165.309 198.986 165.469 199.017 165.686L199.028 165.765C199.182 165.772 199.332 165.796 199.477 165.833C199.213 163.068 198.964 161.472 198 160.107ZM199.513 169.288C200.051 169.032 200.386 168.448 200.299 167.827C200.212 167.211 199.734 166.746 199.153 166.644L199.463 168.843C199.485 168.992 199.501 169.14 199.513 169.288ZM201.575 176.359C200.631 175.168 200.194 173.029 199.875 170.07C199.766 170.121 199.653 170.163 199.535 170.197C199.436 172.997 197.807 175.504 195.368 176.765C196.677 177.122 199.112 177.495 201.575 176.359ZM192.796 176.692C196.53 176.165 199.138 172.698 198.61 168.964L198.217 166.179C196.58 166.142 195.33 165.515 194.418 164.274C193.882 164.921 192.997 165.831 191.692 166.702C189.73 168.013 187.423 168.849 184.829 169.188L185.068 170.878C185.595 174.612 189.062 177.22 192.796 176.692ZM189.024 178.156C189.55 177.932 189.997 177.689 190.347 177.475C187.653 176.941 185.392 174.982 184.521 172.319C184.399 172.319 184.278 172.31 184.16 172.291C184.673 175.223 184.846 177.4 184.269 178.806C185.839 179.048 187.436 178.83 189.024 178.156Z" fill="#1D1D1D"/>
<path d="M196.759 167.936C196.949 168.079 196.987 168.349 196.844 168.539C196.701 168.729 196.431 168.768 196.241 168.625C195.929 168.39 195.484 168.453 195.249 168.765C195.178 168.86 195.074 168.917 194.965 168.932C194.856 168.948 194.741 168.921 194.646 168.85C194.456 168.707 194.417 168.437 194.561 168.247C195.081 167.555 196.067 167.416 196.759 167.936Z" fill="#1D1D1D"/>
<path d="M186.647 169.981C186.457 169.838 186.419 169.567 186.562 169.377C187.082 168.686 188.068 168.546 188.76 169.067C188.95 169.21 188.988 169.48 188.845 169.67C188.702 169.86 188.432 169.898 188.242 169.755C187.93 169.52 187.485 169.583 187.25 169.895C187.179 169.99 187.076 170.047 186.966 170.063C186.857 170.078 186.742 170.052 186.647 169.981Z" fill="#1D1D1D"/>
<path d="M60.7961 85.6731L65.2157 82.7373C66.4185 81.9384 67.8478 81.5509 69.2893 81.633L111.768 84.0512C112.94 84.1179 113.984 84.6336 114.738 85.4255C115.501 86.226 115.966 87.3087 115.966 88.495V129.181C115.966 130.438 115.434 131.638 114.501 132.481L111.337 135.344C110.905 135.734 110.407 136.032 109.871 136.226C109.249 136.452 108.578 136.539 107.905 136.472L63.447 131.993C61.2012 131.767 59.4803 129.896 59.4428 127.639L58.8085 89.4546C58.7954 88.664 58.9926 87.8984 59.3633 87.2276C59.7039 86.6113 60.191 86.075 60.7961 85.6731Z" fill="white"/>
<path d="M109.308 90.4468L115.274 84.9305M59.1485 87.2131C77.8086 88.4731 88.4284 88.559 106.645 89.7891C106.971 89.8111 107.258 89.8211 107.518 89.824C108.843 89.8388 109.871 90.8333 109.871 92.1588V92.1588V136.289M115.966 129.181V88.495C115.966 86.1351 114.124 84.1853 111.768 84.0512L69.2893 81.633C67.8478 81.5509 66.4185 81.9384 65.2157 82.7373L60.7961 85.6731C59.5324 86.5125 58.7833 87.9377 58.8085 89.4546L59.4428 127.639C59.4803 129.896 61.2012 131.767 63.447 131.993L107.905 136.472C109.157 136.598 110.404 136.188 111.337 135.344L114.501 132.481C115.434 131.638 115.966 130.438 115.966 129.181Z" stroke="#1D1D1D" stroke-width="0.55637"/>
<path d="M149.501 129.2L154.958 124.191M126.569 127.418C132.754 127.705 139.113 128.02 146.838 128.542C147.164 128.564 147.45 128.574 147.71 128.577C149.036 128.592 150.064 129.586 150.064 130.912V130.912V159.155M99.3996 152.209L99.6352 166.392C99.6727 168.648 101.394 170.52 103.639 170.746L133.341 173.738M156.158 163.322V127.248C156.158 124.888 154.317 122.938 151.96 122.804L147.372 122.543" stroke="#1D1D1D" stroke-width="0.55637"/>
<path d="M156.464 81.2738L158.29 80.9115C158.29 80.9115 156.756 82.6118 156.464 82.7204C156.437 83.0817 156.437 83.4446 156.464 83.8059C152.958 98.7123 140.029 92.1269 140.029 92.1269C144.739 92.2355 145.141 90.3181 145.141 90.3181C142.402 89.9205 141.854 88.1469 141.854 88.1469C142.1 88.275 142.385 88.3089 142.654 88.2421C142.924 88.1753 143.159 88.0124 143.314 87.7846C140.356 87.0247 140.759 84.1669 140.759 84.1669C141.27 84.6011 142.074 84.7816 142.547 84.8549C142.219 84.4573 139.444 81.1639 141.123 79.4636C141.123 79.4636 143.168 83.0813 148.535 83.407L148.901 83.3351C148.839 83.0743 148.815 82.8061 148.828 82.5385C148.828 81.5308 149.232 80.5644 149.952 79.8519C150.671 79.1393 151.646 78.739 152.663 78.739C155.219 78.739 155.767 80.1855 155.767 80.1855L157.592 79.1C157.56 79.1027 157.377 80.9061 156.464 81.2738Z" stroke="#1D1D1D" stroke-width="1.11274"/>
<path d="M109.556 66.0179V61.4429C109.556 57.9408 112.262 55.0339 115.755 54.7835L168.734 50.9862C170.357 50.8699 171.967 51.3505 173.261 52.3376L179.135 56.8198M179.135 56.8198V107.76C179.135 111.254 176.442 114.156 172.959 114.418L127.292 117.846M179.135 56.8198L116.226 61.242M116.226 61.242V68.1406M116.226 61.242L112.588 57.7042" stroke="#1D1D1D" stroke-width="0.55637"/>
<path d="M134.032 142.23L117.548 143.329C117.241 143.35 116.277 143.91 116.145 145.126L115.043 155.311C114.986 155.842 115.03 157.083 116.069 157.277L132.109 160.257C132.211 160.275 132.314 160.285 132.416 160.285C132.804 160.285 134.201 159.973 134.346 158.62L135.848 144.753C135.989 143.456 135.201 142.15 134.032 142.23V142.23ZM117.592 143.95L134.074 142.851C134.281 142.835 134.488 142.886 134.664 142.997L123.53 153.083L117.283 144.101C117.387 144.01 117.494 143.956 117.592 143.95V143.95ZM115.671 155.376L116.773 145.192C116.793 145.008 116.84 144.826 116.907 144.659L120.973 150.416L115.678 155.856C115.656 155.697 115.654 155.536 115.671 155.376V155.376ZM132.226 159.644L116.186 156.665C116.098 156.648 116.01 156.589 115.932 156.495L121.006 151.281L121.334 150.943L123.405 154.024L126.634 151.202L127.674 152.589L132.892 159.547C132.687 159.652 132.453 159.686 132.226 159.644V159.644ZM135.22 144.375L133.719 158.243C133.682 158.58 133.56 158.893 133.373 159.139L127.104 150.782L135.077 143.468C135.205 143.728 135.256 144.044 135.22 144.375" fill="#1D1D1D"/>
<path d="M91.3807 118.94L88.2026 118.648C88.0906 118.638 87.9938 118.59 87.9123 118.506C87.8308 118.421 87.7901 118.322 87.7901 118.208V113.026C87.7901 112.685 87.757 112.393 87.6908 112.15C87.6246 111.907 87.5482 111.724 87.4616 111.603C87.375 111.482 87.2655 111.381 87.1331 111.302C87.0006 111.223 86.9013 111.178 86.8351 111.166C86.7689 111.155 86.6849 111.145 86.583 111.136C86.3385 111.113 86.1195 111.155 85.926 111.261C85.7325 111.367 85.5975 111.476 85.5211 111.587C85.4447 111.699 85.381 111.814 85.3301 111.933C85.3097 111.993 85.2919 112.077 85.2766 112.184C85.2614 112.29 85.2537 112.416 85.2537 112.56V117.975C85.2537 118.089 85.213 118.183 85.1315 118.258C85.05 118.333 84.9532 118.365 84.8412 118.355L81.6631 118.063C81.6122 118.058 81.5612 118.043 81.5103 118.018C81.4594 117.993 81.4135 117.957 81.3728 117.912C81.2913 117.822 81.2556 117.721 81.2658 117.609V116.185L81.2735 114.747L81.2811 113.077V109.813L81.2735 108.606L81.2658 107.94C81.2556 107.825 81.2913 107.728 81.3728 107.648C81.4543 107.568 81.551 107.533 81.6631 107.543L84.8412 107.835C84.9023 107.841 84.9583 107.856 85.0092 107.881C85.0602 107.907 85.1035 107.939 85.1391 107.978C85.1748 108.018 85.2028 108.064 85.2232 108.118C85.2435 108.171 85.2537 108.229 85.2537 108.291V108.523C85.9056 107.995 86.7256 107.776 87.7137 107.867C88.987 107.984 89.9827 108.498 90.7008 109.41C91.4189 110.322 91.778 111.525 91.778 113.021V118.575C91.778 118.626 91.7678 118.677 91.7474 118.726C91.727 118.776 91.699 118.817 91.6634 118.85C91.6277 118.883 91.5844 118.907 91.5335 118.923C91.4826 118.939 91.4316 118.945 91.3807 118.94ZM88.5999 117.865L90.9682 118.082V112.946C90.9682 111.688 90.6855 110.69 90.1202 109.952C89.5548 109.214 88.7527 108.798 87.7137 108.702C86.6543 108.605 85.8292 108.973 85.2384 109.805C85.1875 109.997 85.0602 110.083 84.8565 110.064L84.8259 110.061C84.6731 110.047 84.556 109.964 84.4745 109.813C84.4134 109.704 84.4032 109.595 84.4439 109.485V108.618L82.0756 108.401C82.096 109.548 82.096 112.502 82.0756 117.265L84.4439 117.483V112.486C84.4439 112.084 84.4898 111.773 84.5814 111.555C84.6527 111.386 84.7393 111.232 84.8412 111.092C84.943 110.951 85.0576 110.828 85.185 110.721C85.3123 110.614 85.4498 110.529 85.5975 110.465C85.7452 110.401 85.9031 110.354 86.0712 110.323C86.2392 110.292 86.4098 110.284 86.583 110.3C87.0108 110.34 87.375 110.476 87.6755 110.71C87.976 110.944 88.2052 111.261 88.363 111.663C88.5209 112.064 88.5999 112.543 88.5999 113.1V117.865ZM79.906 117.886L76.7279 117.594C76.6158 117.584 76.5191 117.536 76.4376 117.451C76.3561 117.366 76.3153 117.267 76.3153 117.154V107.469C76.3153 107.356 76.3561 107.262 76.4376 107.187C76.5191 107.112 76.6158 107.079 76.7279 107.09L79.906 107.382C80.018 107.392 80.1148 107.442 80.1963 107.532C80.2778 107.622 80.3185 107.724 80.3185 107.837V117.522C80.3185 117.594 80.3007 117.659 80.265 117.718C80.2294 117.776 80.1785 117.821 80.1122 117.851C80.046 117.881 79.9773 117.892 79.906 117.886ZM77.1404 116.812L79.5087 117.029V108.165L77.1404 107.947V116.812ZM78.3169 106.741L78.3016 106.739C77.6701 106.681 77.1506 106.435 76.7432 106C76.3357 105.566 76.132 105.047 76.132 104.444C76.132 103.84 76.3408 103.362 76.7584 103.008C77.1761 102.655 77.7058 102.507 78.3475 102.566C78.9688 102.623 79.4832 102.864 79.8907 103.288C80.2981 103.712 80.507 104.229 80.5171 104.839C80.5171 105.447 80.3109 105.931 79.8983 106.29C79.4858 106.649 78.9587 106.799 78.3169 106.741ZM78.3475 103.386C77.9298 103.348 77.5912 103.433 77.3314 103.641C77.0717 103.849 76.9418 104.144 76.9418 104.526C76.9418 104.897 77.0691 105.213 77.3238 105.474C77.5784 105.734 77.9044 105.883 78.3016 105.919L78.3169 105.921C78.592 105.946 78.8339 105.914 79.0427 105.825C79.2515 105.736 79.4145 105.601 79.5316 105.421C79.6488 105.241 79.7073 105.027 79.7073 104.78C79.6972 104.397 79.5698 104.079 79.3254 103.824C79.0809 103.57 78.7549 103.424 78.3475 103.386Z" fill="#1D1D1D"/>
</svg>
