<svg width="60" height="52" viewBox="0 0 60 52" fill="none" xmlns="http://www.w3.org/2000/svg">
<path d="M54.724 0.00995441L7.25897 3.17395C6.37497 3.23495 3.59997 4.84895 3.21997 8.34995L0.0459711 37.677C-0.119029 39.207 0.00697112 42.781 2.99997 43.338L49.189 51.919C49.481 51.973 49.778 52 50.071 52C51.188 52 55.212 51.102 55.63 47.207L59.953 7.27495C60.359 3.54195 58.091 -0.219046 54.724 0.00995441V0.00995441ZM7.38497 4.96295L54.845 1.79795C55.4423 1.75188 56.0387 1.89913 56.546 2.21795L24.484 31.263L6.49497 5.39695C6.79397 5.13595 7.10397 4.98195 7.38497 4.96295V4.96295ZM1.85397 37.866L5.02797 8.53995C5.08597 8.00995 5.21897 7.48495 5.41397 7.00495L17.12 23.582L1.87497 39.247C1.81081 38.7893 1.80375 38.3254 1.85397 37.866V37.866ZM49.526 50.156L3.33697 41.576C3.08297 41.529 2.83097 41.357 2.60597 41.087L17.215 26.074L18.161 25.101L24.123 33.973L33.421 25.846L36.416 29.84L51.443 49.875C50.8524 50.1773 50.1785 50.2761 49.526 50.156V50.156ZM58.146 6.18795L53.823 46.12C53.718 47.092 53.366 47.992 52.827 48.702L34.776 24.636L57.735 3.57595C58.102 4.32295 58.249 5.23295 58.146 6.18795" fill="#1D1D1D"/>
</svg>
