<svg width="245" height="384" viewBox="0 0 245 384" fill="none" xmlns="http://www.w3.org/2000/svg">
<path d="M123.986 356.862C123.986 334.307 123.986 311.788 123.986 289.233C123.986 288.553 122.91 288.553 122.91 289.233C122.91 311.788 122.91 334.307 122.91 356.862C122.91 357.542 123.986 357.542 123.986 356.862Z" fill="#1D1D1D"/>
<path d="M113.982 291.668C135.89 282.252 157.87 272.801 178.703 261.129C184.655 257.8 190.535 254.256 196.272 250.496C196.846 250.103 196.308 249.172 195.735 249.566C175.727 262.633 154.141 272.944 132.34 282.539C126.065 285.295 119.754 288.016 113.48 290.701C112.798 291.024 113.372 291.919 113.982 291.668Z" fill="#1D1D1D"/>
<path d="M141.627 277.777C141.627 248.85 141.627 219.886 141.627 190.959C141.627 182.725 141.627 174.526 141.627 166.292C141.627 165.611 140.551 165.611 140.551 166.292C140.551 195.219 140.551 224.182 140.551 253.11C140.551 261.344 140.551 269.543 140.551 277.777C140.551 278.457 141.627 278.457 141.627 277.777Z" fill="#1D1D1D"/>
<path d="M135.352 166.476C162.065 166.476 188.778 166.476 215.491 166.476C223.129 166.476 230.766 166.476 238.368 166.476C239.049 166.476 239.049 165.401 238.368 165.401C211.655 165.401 184.942 165.401 158.228 165.401C150.591 165.401 142.954 165.401 135.352 165.401C134.635 165.401 134.635 166.476 135.352 166.476Z" fill="#1D1D1D"/>
<path d="M228.4 172.02C228.4 218.741 228.4 265.461 228.4 312.182C228.4 325.285 228.4 338.389 228.4 351.528C228.4 352.208 229.476 352.208 229.476 351.528C229.476 304.807 229.476 258.086 229.476 211.366C229.476 198.262 229.476 185.159 229.476 172.02C229.476 171.34 228.4 171.34 228.4 172.02Z" fill="#1D1D1D"/>
<path d="M128.754 290.415C152.169 281.644 174.615 270.474 195.735 257.12C196.308 256.762 195.771 255.831 195.197 256.189C174.149 269.507 151.774 280.641 128.468 289.377C127.822 289.627 128.109 290.666 128.754 290.415Z" fill="#1D1D1D"/>
<path d="M231.699 174.562C231.735 202.272 231.771 229.947 231.771 257.657C231.771 258.337 232.846 258.337 232.846 257.657C232.81 229.947 232.774 202.272 232.774 174.562C232.774 173.882 231.699 173.882 231.699 174.562Z" fill="#1D1D1D"/>
<path d="M154.033 162.86C182.288 162.86 210.508 162.86 238.763 162.86C239.444 162.86 239.444 161.786 238.763 161.786C210.508 161.786 182.288 161.786 154.033 161.786C153.352 161.786 153.352 162.86 154.033 162.86Z" fill="#1D1D1D"/>
<path d="M152.025 200.446C152.025 194.467 152.025 188.488 152.025 182.545C152.025 181.865 150.95 181.865 150.95 182.545C150.95 188.524 150.95 194.503 150.95 200.446C150.95 201.162 152.025 201.162 152.025 200.446Z" fill="#1D1D1D"/>
<path d="M151.201 182.474C154.715 182.474 158.229 182.474 161.742 182.474C162.424 182.474 162.424 181.4 161.742 181.4C158.229 181.4 154.715 181.4 151.201 181.4C150.519 181.4 150.519 182.474 151.201 182.474Z" fill="#1D1D1D"/>
<path d="M161.205 182.259C161.205 188.489 161.205 194.718 161.205 200.912C161.205 201.592 162.28 201.592 162.28 200.912C162.28 194.682 162.28 188.453 162.28 182.259C162.28 181.543 161.205 181.543 161.205 182.259Z" fill="#1D1D1D"/>
<path d="M151.667 201.592C154.786 201.592 157.906 201.592 161.025 201.592C161.707 201.592 161.707 200.518 161.025 200.518C157.906 200.518 154.786 200.518 151.667 200.518C150.95 200.518 150.95 201.592 151.667 201.592Z" fill="#1D1D1D"/>
<path d="M201.83 200.446C201.83 194.467 201.83 188.488 201.83 182.545C201.83 181.865 200.754 181.865 200.754 182.545C200.754 188.524 200.754 194.503 200.754 200.446C200.754 201.162 201.83 201.162 201.83 200.446Z" fill="#1D1D1D"/>
<path d="M200.97 182.474C204.484 182.474 207.998 182.474 211.511 182.474C212.193 182.474 212.193 181.4 211.511 181.4C207.998 181.4 204.484 181.4 200.97 181.4C200.288 181.4 200.288 182.474 200.97 182.474Z" fill="#1D1D1D"/>
<path d="M211.009 182.259C211.009 188.489 211.009 194.718 211.009 200.912C211.009 201.592 212.085 201.592 212.085 200.912C212.085 194.682 212.085 188.453 212.085 182.259C212.085 181.543 211.009 181.543 211.009 182.259Z" fill="#1D1D1D"/>
<path d="M201.436 201.592C204.555 201.592 207.675 201.592 210.794 201.592C211.476 201.592 211.476 200.518 210.794 200.518C207.675 200.518 204.555 200.518 201.436 200.518C200.754 200.518 200.754 201.592 201.436 201.592Z" fill="#1D1D1D"/>
<path d="M104 39C114.493 39 123 30.4934 123 20C123 9.50659 114.493 1 104 1C93.5066 1 85 9.50659 85 20C85 30.4934 93.5066 39 104 39Z" stroke="#1D1D1D" stroke-miterlimit="10"/>
<path d="M155.181 123.044C161.133 118.998 168.376 121.54 174.543 123.616C177.448 124.583 180.388 125.478 183.436 125.765C186.734 126.087 190.033 125.729 193.26 125.084C206.061 122.435 219.902 113.413 233.061 119.535C233.671 119.822 234.244 118.891 233.599 118.604C223.918 114.093 213.268 117.638 203.802 120.86C198.28 122.757 192.579 124.655 186.663 124.798C180.603 124.941 175.296 122.471 169.595 120.896C164.647 119.499 159.053 119.106 154.607 122.113C154.069 122.507 154.607 123.437 155.181 123.044Z" fill="#1D1D1D"/>
<path d="M217.68 139C213.901 140.214 212.493 141.758 211.276 146.087C206.306 144.995 203.88 145.458 200 147.624" stroke="#1D1D1D"/>
<path d="M230.939 139.884C227.161 141.098 225.753 142.642 224.536 146.971C219.566 145.879 217.14 146.342 213.26 148.508" stroke="#1D1D1D"/>
<path d="M0.576874 371.648C25.2821 371.648 50.0231 371.648 74.7283 371.648C81.7562 371.648 88.82 371.648 95.8479 371.648C96.5291 371.648 96.5291 370.574 95.8479 370.574C71.1427 370.574 46.4016 370.574 21.6964 370.574C14.6685 370.574 7.60477 370.574 0.576874 370.574C-0.104401 370.574 -0.104401 371.648 0.576874 371.648Z" fill="#1D1D1D"/>
<path d="M105.852 372.543C122.418 371.254 138.947 370.896 155.549 372.292C156.23 372.364 156.23 371.29 155.549 371.218C138.947 369.822 122.453 370.18 105.852 371.469C105.171 371.504 105.171 372.578 105.852 372.543Z" fill="#1D1D1D"/>
<path d="M150.744 378.199C159.673 378.987 168.529 376.767 177.422 376.194C186.565 375.622 195.744 376.194 204.78 377.806C205.461 377.913 205.748 376.875 205.067 376.767C196.175 375.192 187.139 374.583 178.103 375.085C168.995 375.586 159.888 377.949 150.744 377.125C150.063 377.054 150.063 378.128 150.744 378.199Z" fill="#1D1D1D"/>
<path d="M202.553 368.544C200.778 367.181 199.123 365.647 197.655 363.96C197.331 363.585 197.024 363.21 196.716 362.836C196.494 362.563 196.255 362.273 196.102 361.966C195.897 361.557 195.982 361.268 195.982 360.808C195.982 360.007 195.522 360.041 194.992 359.495C194.19 358.66 194.071 357.45 193.832 356.377C193.61 355.371 193.2 354.485 192.74 353.582C191.664 351.418 191.169 348.947 190.521 346.629C190.47 346.731 190.401 346.834 190.35 346.936C192.603 346.629 195.044 348.316 196.836 349.543C197.757 350.174 198.628 350.855 199.464 351.588C200.3 352.338 201.581 353.395 201.12 354.656C201.051 354.826 201.222 354.979 201.359 354.979C202.758 355.031 203.816 356.428 204.567 357.467C205.301 358.456 205.899 359.547 206.342 360.688C207.23 362.989 207.503 365.494 207.11 367.931C207.059 368.255 207.554 368.391 207.605 368.067C208.049 365.341 207.708 362.546 206.598 359.99C206.052 358.746 205.335 357.57 204.465 356.513C203.663 355.542 202.69 354.502 201.342 354.451C201.427 354.553 201.512 354.673 201.581 354.775C201.973 353.718 201.359 352.747 200.642 351.997C199.72 351.026 198.645 350.191 197.553 349.424C195.539 347.993 192.791 346.067 190.179 346.442C190.043 346.459 189.975 346.629 190.009 346.748C190.674 349.117 191.169 351.605 192.279 353.821C192.842 354.962 193.217 356.036 193.49 357.28C193.678 358.2 193.951 359.155 194.634 359.853C194.924 360.16 195.436 360.33 195.487 360.774C195.522 361.182 195.385 361.472 195.539 361.915C195.863 362.818 196.699 363.636 197.314 364.335C198.816 366.056 200.505 367.607 202.314 369.004C202.553 369.175 202.809 368.732 202.553 368.544Z" fill="#1D1D1D"/>
<path d="M205.472 357.314C206.069 355.116 207.844 353.207 209.244 351.469C209.619 351.009 209.978 350.566 210.353 350.123C210.66 349.748 211.053 349.049 211.582 348.964C211.804 348.93 211.906 349.066 212.145 348.913C212.401 348.759 212.504 348.453 212.64 348.214C213.664 346.356 215.303 345.01 217.027 343.8C218.375 342.846 219.706 341.892 220.372 340.324C220.201 340.273 220.048 340.239 219.877 340.187C219.177 342.778 219.177 345.351 219.621 347.992C220.082 350.736 220.184 353.395 219.433 356.121C218 361.319 214.057 364.812 210.046 368.118C209.79 368.323 210.148 368.681 210.404 368.476C214.33 365.238 218.204 361.813 219.758 356.803C220.491 354.417 220.696 351.895 220.355 349.424C220.15 347.958 219.826 346.527 219.775 345.027C219.723 343.425 219.928 341.84 220.355 340.307C220.44 339.983 219.979 339.881 219.86 340.17C219.075 342.045 217.146 342.999 215.61 344.175C214.825 344.772 214.091 345.436 213.425 346.169C213.135 346.493 212.862 346.851 212.623 347.209C212.436 347.498 212.145 348.282 211.838 348.384C211.633 348.453 211.411 348.333 211.173 348.435C210.831 348.572 210.609 348.981 210.387 349.236C209.636 350.14 208.885 351.026 208.169 351.946C206.923 353.514 205.506 355.184 204.96 357.144C204.892 357.501 205.387 357.638 205.472 357.314Z" fill="#1D1D1D"/>
<path d="M192.466 349.56C194.003 350.651 195.163 352.116 196.307 353.599C197.518 355.133 198.713 356.683 199.84 358.285C202.007 361.353 203.902 364.642 204.909 368.289C204.994 368.612 205.489 368.476 205.404 368.152C204.363 364.369 202.383 360.961 200.113 357.791C199.003 356.24 197.843 354.741 196.665 353.241C195.487 351.724 194.293 350.242 192.705 349.134C192.449 348.93 192.193 349.373 192.466 349.56Z" fill="#1D1D1D"/>
<path d="M218.068 344.601C215.354 351.725 209.09 357.041 207.298 364.574C207.23 364.897 207.708 365.034 207.793 364.71C209.568 357.178 215.849 351.861 218.563 344.738C218.682 344.431 218.187 344.295 218.068 344.601Z" fill="#1D1D1D"/>
<path d="M213.869 345.811C214.125 348.18 213.972 350.532 213.408 352.832C213.323 353.156 213.818 353.292 213.903 352.968C214.467 350.617 214.637 348.214 214.381 345.811C214.347 345.487 213.835 345.487 213.869 345.811Z" fill="#1D1D1D"/>
<path d="M215.422 350.634C217.027 349.628 218.546 348.504 219.979 347.26C220.235 347.038 219.86 346.68 219.621 346.902C218.221 348.112 216.737 349.219 215.166 350.191C214.876 350.378 215.132 350.821 215.422 350.634Z" fill="#1D1D1D"/>
<path d="M192.654 354.042C193.832 354.008 195.487 353.667 196.563 354.23C196.853 354.383 197.109 353.94 196.819 353.787C195.607 353.139 193.968 353.48 192.654 353.531C192.313 353.548 192.313 354.059 192.654 354.042Z" fill="#1D1D1D"/>
<path d="M199.106 351.452C198.901 353.105 198.935 354.724 199.174 356.377C199.225 356.701 199.72 356.564 199.669 356.24C199.43 354.639 199.43 353.054 199.618 351.452C199.669 351.128 199.157 351.128 199.106 351.452Z" fill="#1D1D1D"/>
<path d="M206.602 383.82C212.41 384.142 218.147 382.853 223.956 382.961C229.514 383.068 234.928 384.536 240.486 383.641C241.167 383.534 240.88 382.495 240.199 382.603C234.534 383.534 228.94 381.887 223.275 381.887C217.717 381.887 212.195 383.068 206.602 382.746C205.92 382.674 205.92 383.748 206.602 383.82Z" fill="#1D1D1D"/>
<path d="M194.238 370.359C198.398 369.786 202.593 369.607 206.788 369.786C210.912 369.965 214.999 370.466 219.159 370.108C223.21 369.786 227.226 369.141 231.314 369.177C235.437 369.213 239.525 369.678 243.613 370.215C244.294 370.287 244.294 369.213 243.613 369.141C239.525 368.64 235.437 368.139 231.314 368.103C227.011 368.067 222.78 368.783 218.477 369.07C214.354 369.356 210.266 368.819 206.143 368.676C202.055 368.533 198.003 368.783 193.987 369.32C193.27 369.428 193.557 370.466 194.238 370.359Z" fill="#1D1D1D"/>
</svg>
