<svg width="622" height="424" viewBox="0 0 622 424" fill="none" xmlns="http://www.w3.org/2000/svg">
<rect x="124" y="63" width="65" height="120" fill="#1D1D1D"/>
<rect x="165" y="4" width="123.5" height="171.5" fill="#1D1D1D" stroke="#1D1D1D"/>
<rect x="162" y="1" width="123.5" height="171.5" fill="white" stroke="black"/>
<rect x="524" y="116" width="90" height="60" fill="#1D1D1D" stroke="#1D1D1D"/>
<rect x="522" y="114" width="90" height="60" fill="white" stroke="#1D1D1D"/>
<path d="M121 180V60H186V113.5" stroke="black"/>
<rect x="121" y="60" width="65" height="10" stroke="black"/>
<rect x="121" y="165" width="65" height="15" stroke="black"/>
<path d="M178 64.5H183V64H178V64.5Z" fill="black"/>
<path d="M178 65.5H183V65H178V65.5Z" fill="black"/>
<rect width="10" height="3" rx="1.5" transform="matrix(1 0 0 -1 149 174)" stroke="black"/>
<path d="M162 59.5V1H285.5V13.5M186.5 172.5H285.5V46.75" stroke="#1D1D1D"/>
<rect x="121" y="60" width="65" height="120" fill="white" stroke="#1D1D1D"/>
<circle cx="186.5" cy="125.5" r="12.5" fill="#1D1D1D"/>
<path d="M184.149 121.727V126.884C184.146 127.722 183.755 128.169 183.059 128.169C182.416 128.169 181.969 127.786 181.965 127.182H180.875C180.875 128.411 181.798 129.099 183.031 129.099C184.366 129.099 185.239 128.283 185.243 126.884V121.727H184.149ZM190.807 123.638H191.865C191.833 122.473 190.803 121.628 189.326 121.628C187.866 121.628 186.748 122.462 186.748 123.716C186.748 124.728 187.472 125.321 188.64 125.637L189.5 125.871C190.278 126.077 190.878 126.333 190.878 126.979C190.878 127.69 190.199 128.158 189.265 128.158C188.42 128.158 187.717 127.782 187.653 126.99H186.552C186.623 128.308 187.643 129.121 189.273 129.121C190.981 129.121 191.964 128.222 191.964 126.99C191.964 125.68 190.796 125.172 189.873 124.945L189.162 124.76C188.594 124.614 187.838 124.348 187.841 123.652C187.841 123.034 188.406 122.576 189.301 122.576C190.135 122.576 190.729 122.967 190.807 123.638Z" fill="white"/>
<rect x="206" y="226" width="320" height="197" fill="#1D1D1D" stroke="#1D1D1D"/>
<rect x="201" y="221" width="320" height="197" fill="white" stroke="black"/>
<rect x="275" y="20" width="21" height="21" rx="10.5" fill="black"/>
<path d="M279.244 31.2891L284.432 33.8047V32.6094L280.639 30.8828V30.8203L284.432 29.0898V27.8984L279.244 30.4141V31.2891ZM291.758 31.2891V30.4141L286.57 27.8984V29.0898L290.359 30.8164V30.8867L286.57 32.6094V33.8047L291.758 31.2891Z" fill="white"/>
<path d="M286 90H364.5V220" stroke="black"/>
<path d="M51 315L51 363.5H201" stroke="#1D1D1D"/>
<path d="M521 221H201V418H521V221Z" stroke="#1D1D1D"/>
<path opacity="0.3" d="M228.691 302.947H218.313V306.095H228.691V302.947Z" fill="#555555"/>
<path opacity="0.3" d="M505.608 303.04H495.23V306.188H505.608V303.04Z" fill="#555555"/>
<path opacity="0.3" d="M228.784 325.076H218.406V328.224H228.784V325.076Z" fill="#555555"/>
<path opacity="0.3" d="M228.877 347.204H218.499V350.352H228.877V347.204Z" fill="#555555"/>
<path opacity="0.3" d="M228.97 369.328H218.592V372.476H228.97V369.328Z" fill="#555555"/>
<g opacity="0.2">
<path opacity="0.2" d="M233.872 308.937H230.928V309.059H233.872V308.937Z" fill="#F2F2F2"/>
<path opacity="0.2" d="M488.551 309.059H482.766V308.937H488.551V309.059ZM476.976 309.059H471.191V308.937H476.976V309.059ZM465.401 309.059H459.611V308.937H465.401V309.059ZM453.826 309.059H448.035V308.937H453.826V309.059ZM442.25 309.059H436.46V308.937H442.25V309.059ZM430.67 309.059H424.885V308.937H430.67V309.059ZM419.095 309.059H413.305V308.937H419.095V309.059ZM407.52 309.059H401.73V308.937H407.52V309.059ZM395.945 309.059H390.154V308.937H395.945V309.059ZM384.364 309.059H378.579V308.937H384.364V309.059ZM372.789 309.059H366.999V308.937H372.789V309.059ZM361.214 309.059H355.424V308.937H361.214V309.059ZM349.639 309.059H343.849V308.937H349.639V309.059ZM338.059 309.059H332.273V308.937H338.059V309.059ZM326.483 309.059H320.698V308.937H326.483V309.059ZM314.908 309.059H309.138V308.937H314.928L314.908 309.059ZM303.333 309.059H297.543V308.937H303.333V309.059ZM291.753 309.059H285.968V308.937H291.753V309.059ZM280.178 309.059H274.393V308.937H280.187L280.178 309.059ZM268.602 309.059H262.812V308.937H268.602V309.059ZM257.027 309.059H251.237V308.937H257.027V309.059ZM245.447 309.059H239.662V308.937H245.447V309.059Z" fill="#F2F2F2"/>
<path opacity="0.2" d="M497.285 308.937H494.341V309.059H497.285V308.937Z" fill="#F2F2F2"/>
<path opacity="0.2" d="M233.872 308.937H230.928V309.059H233.872V308.937Z" fill="#F2F2F2"/>
<path opacity="0.2" d="M488.551 309.059H482.766V308.937H488.551V309.059ZM476.976 309.059H471.191V308.937H476.976V309.059ZM465.401 309.059H459.611V308.937H465.401V309.059ZM453.826 309.059H448.035V308.937H453.826V309.059ZM442.25 309.059H436.46V308.937H442.25V309.059ZM430.67 309.059H424.885V308.937H430.67V309.059ZM419.095 309.059H413.305V308.937H419.095V309.059ZM407.52 309.059H401.73V308.937H407.52V309.059ZM395.945 309.059H390.154V308.937H395.945V309.059ZM384.364 309.059H378.579V308.937H384.364V309.059ZM372.789 309.059H366.999V308.937H372.789V309.059ZM361.214 309.059H355.424V308.937H361.214V309.059ZM349.639 309.059H343.849V308.937H349.639V309.059ZM338.059 309.059H332.273V308.937H338.059V309.059ZM326.483 309.059H320.698V308.937H326.483V309.059ZM314.908 309.059H309.138V308.937H314.928L314.908 309.059ZM303.333 309.059H297.543V308.937H303.333V309.059ZM291.753 309.059H285.968V308.937H291.753V309.059ZM280.178 309.059H274.393V308.937H280.187L280.178 309.059ZM268.602 309.059H262.812V308.937H268.602V309.059ZM257.027 309.059H251.237V308.937H257.027V309.059ZM245.447 309.059H239.662V308.937H245.447V309.059Z" fill="#F2F2F2"/>
<path opacity="0.2" d="M497.285 308.937H494.341V309.059H497.285V308.937Z" fill="#F2F2F2"/>
</g>
<path opacity="0.3" d="M228.691 280.882H218.313V284.03H228.691V280.882Z" fill="#555555"/>
<path opacity="0.3" d="M505.608 280.975H495.23V284.123H505.608V280.975Z" fill="#555555"/>
<g opacity="0.2">
<path opacity="0.2" d="M233.872 286.872H230.928V286.994H233.872V286.872Z" fill="#F2F2F2"/>
<path opacity="0.2" d="M488.551 286.994H482.766V286.872H488.551V286.994ZM476.976 286.994H471.191V286.872H476.976V286.994ZM465.401 286.994H459.611V286.872H465.401V286.994ZM453.826 286.994H448.035V286.872H453.826V286.994ZM442.25 286.994H436.46V286.872H442.25V286.994ZM430.67 286.994H424.885V286.872H430.67V286.994ZM419.095 286.994H413.305V286.872H419.095V286.994ZM407.52 286.994H401.73V286.872H407.52V286.994ZM395.945 286.994H390.154V286.872H395.945V286.994ZM384.364 286.994H378.579V286.872H384.364V286.994ZM372.789 286.994H366.999V286.872H372.789V286.994ZM361.214 286.994H355.424V286.872H361.214V286.994ZM349.639 286.994H343.849V286.872H349.639V286.994ZM338.059 286.994H332.273V286.872H338.059V286.994ZM326.483 286.994H320.698V286.872H326.483V286.994ZM314.908 286.994H309.138V286.872H314.928L314.908 286.994ZM303.333 286.994H297.543V286.872H303.333V286.994ZM291.753 286.994H285.968V286.872H291.753V286.994ZM280.178 286.994H274.393V286.872H280.187L280.178 286.994ZM268.602 286.994H262.812V286.872H268.602V286.994ZM257.027 286.994H251.237V286.872H257.027V286.994ZM245.447 286.994H239.662V286.872H245.447V286.994Z" fill="#F2F2F2"/>
<path opacity="0.2" d="M497.285 286.872H494.341V286.994H497.285V286.872Z" fill="#F2F2F2"/>
</g>
<path opacity="0.3" d="M505.608 325.076H495.23V328.224H505.608V325.076Z" fill="#555555"/>
<g opacity="0.2">
<path opacity="0.2" d="M233.872 330.972H230.928V331.094H233.872V330.972Z" fill="#F2F2F2"/>
<path opacity="0.2" d="M488.551 331.09H482.766V330.967H488.551V331.09ZM476.976 331.09H471.191V330.967H476.976V331.09ZM465.401 331.09H459.611V330.967H465.401V331.09ZM453.826 331.09H448.035V330.967H453.826V331.09ZM442.25 331.09H436.46V330.967H442.25V331.09ZM430.67 331.09H424.885V330.967H430.67V331.09ZM419.095 331.09H413.305V330.967H419.095V331.09ZM407.52 331.09H401.73V330.967H407.52V331.09ZM395.945 331.09H390.154V330.967H395.945V331.09ZM384.364 331.09H378.579V330.967H384.364V331.09ZM372.789 331.09H366.999V330.967H372.789V331.09ZM361.214 331.09H355.424V330.967H361.214V331.09ZM349.639 331.09H343.849V330.967H349.639V331.09ZM338.059 331.09H332.273V330.967H338.059V331.09ZM326.483 331.09H320.698V330.967H326.483V331.09ZM314.908 331.09H309.138V330.967H314.928L314.908 331.09ZM303.333 331.09H297.543V330.967H303.333V331.09ZM291.753 331.09H285.968V330.967H291.753V331.09ZM280.178 331.09H274.393V330.967H280.187L280.178 331.09ZM268.602 331.09H262.812V330.967H268.602V331.09ZM257.027 331.09H251.237V330.967H257.027V331.09ZM245.447 331.09H239.662V330.967H245.447V331.09Z" fill="#F2F2F2"/>
<path opacity="0.2" d="M497.285 330.972H494.341V331.095H497.285V330.972Z" fill="#F2F2F2"/>
<path opacity="0.2" d="M233.872 330.972H230.928V331.094H233.872V330.972Z" fill="#F2F2F2"/>
<path opacity="0.2" d="M488.551 331.09H482.766V330.967H488.551V331.09ZM476.976 331.09H471.191V330.967H476.976V331.09ZM465.401 331.09H459.611V330.967H465.401V331.09ZM453.826 331.09H448.035V330.967H453.826V331.09ZM442.25 331.09H436.46V330.967H442.25V331.09ZM430.67 331.09H424.885V330.967H430.67V331.09ZM419.095 331.09H413.305V330.967H419.095V331.09ZM407.52 331.09H401.73V330.967H407.52V331.09ZM395.945 331.09H390.154V330.967H395.945V331.09ZM384.364 331.09H378.579V330.967H384.364V331.09ZM372.789 331.09H366.999V330.967H372.789V331.09ZM361.214 331.09H355.424V330.967H361.214V331.09ZM349.639 331.09H343.849V330.967H349.639V331.09ZM338.059 331.09H332.273V330.967H338.059V331.09ZM326.483 331.09H320.698V330.967H326.483V331.09ZM314.908 331.09H309.138V330.967H314.928L314.908 331.09ZM303.333 331.09H297.543V330.967H303.333V331.09ZM291.753 331.09H285.968V330.967H291.753V331.09ZM280.178 331.09H274.393V330.967H280.187L280.178 331.09ZM268.602 331.09H262.812V330.967H268.602V331.09ZM257.027 331.09H251.237V330.967H257.027V331.09ZM245.447 331.09H239.662V330.967H245.447V331.09Z" fill="#F2F2F2"/>
<path opacity="0.2" d="M497.285 330.972H494.341V331.095H497.285V330.972Z" fill="#F2F2F2"/>
</g>
<path opacity="0.3" d="M505.608 347.111H495.23V350.259H505.608V347.111Z" fill="#555555"/>
<g opacity="0.2">
<path opacity="0.2" d="M233.872 353.003H230.928V353.125H233.872V353.003Z" fill="#F2F2F2"/>
<path opacity="0.2" d="M488.551 353.125H482.766V353.003H488.551V353.125ZM476.976 353.125H471.191V353.003H476.976V353.125ZM465.401 353.125H459.611V353.003H465.401V353.125ZM453.826 353.125H448.035V353.003H453.826V353.125ZM442.25 353.125H436.46V353.003H442.25V353.125ZM430.67 353.125H424.885V353.003H430.67V353.125ZM419.095 353.125H413.305V353.003H419.095V353.125ZM407.52 353.125H401.73V353.003H407.52V353.125ZM395.945 353.125H390.154V353.003H395.945V353.125ZM384.364 353.125H378.579V353.003H384.364V353.125ZM372.789 353.125H366.999V353.003H372.789V353.125ZM361.214 353.125H355.424V353.003H361.214V353.125ZM349.639 353.125H343.849V353.003H349.639V353.125ZM338.059 353.125H332.273V353.003H338.059V353.125ZM326.483 353.125H320.698V353.003H326.483V353.125ZM314.908 353.125H309.138V353.003H314.928L314.908 353.125ZM303.333 353.125H297.543V353.003H303.333V353.125ZM291.753 353.125H285.968V353.003H291.753V353.125ZM280.178 353.125H274.393V353.003H280.187L280.178 353.125ZM268.602 353.125H262.812V353.003H268.602V353.125ZM257.027 353.125H251.237V353.003H257.027V353.125ZM245.447 353.125H239.662V353.003H245.447V353.125Z" fill="#F2F2F2"/>
<path opacity="0.2" d="M497.285 353.003H494.341V353.125H497.285V353.003Z" fill="#F2F2F2"/>
<path opacity="0.2" d="M233.872 353.003H230.928V353.125H233.872V353.003Z" fill="#F2F2F2"/>
<path opacity="0.2" d="M488.551 353.125H482.766V353.003H488.551V353.125ZM476.976 353.125H471.191V353.003H476.976V353.125ZM465.401 353.125H459.611V353.003H465.401V353.125ZM453.826 353.125H448.035V353.003H453.826V353.125ZM442.25 353.125H436.46V353.003H442.25V353.125ZM430.67 353.125H424.885V353.003H430.67V353.125ZM419.095 353.125H413.305V353.003H419.095V353.125ZM407.52 353.125H401.73V353.003H407.52V353.125ZM395.945 353.125H390.154V353.003H395.945V353.125ZM384.364 353.125H378.579V353.003H384.364V353.125ZM372.789 353.125H366.999V353.003H372.789V353.125ZM361.214 353.125H355.424V353.003H361.214V353.125ZM349.639 353.125H343.849V353.003H349.639V353.125ZM338.059 353.125H332.273V353.003H338.059V353.125ZM326.483 353.125H320.698V353.003H326.483V353.125ZM314.908 353.125H309.138V353.003H314.928L314.908 353.125ZM303.333 353.125H297.543V353.003H303.333V353.125ZM291.753 353.125H285.968V353.003H291.753V353.125ZM280.178 353.125H274.393V353.003H280.187L280.178 353.125ZM268.602 353.125H262.812V353.003H268.602V353.125ZM257.027 353.125H251.237V353.003H257.027V353.125ZM245.447 353.125H239.662V353.003H245.447V353.125Z" fill="#F2F2F2"/>
<path opacity="0.2" d="M497.285 353.003H494.341V353.125H497.285V353.003Z" fill="#F2F2F2"/>
</g>
<path opacity="0.3" d="M505.608 369.142H495.23V372.29H505.608V369.142Z" fill="#555555"/>
<g opacity="0.2">
<path opacity="0.2" d="M233.872 375.038H230.928V375.16H233.872V375.038Z" fill="#F2F2F2"/>
<path opacity="0.2" d="M488.551 375.16H482.766V375.038H488.551V375.16ZM476.976 375.16H471.191V375.038H476.976V375.16ZM465.401 375.16H459.611V375.038H465.401V375.16ZM453.826 375.16H448.035V375.038H453.826V375.16ZM442.25 375.16H436.46V375.038H442.25V375.16ZM430.67 375.16H424.885V375.038H430.67V375.16ZM419.095 375.16H413.305V375.038H419.095V375.16ZM407.52 375.16H401.73V375.038H407.52V375.16ZM395.945 375.16H390.154V375.038H395.945V375.16ZM384.364 375.16H378.579V375.038H384.364V375.16ZM372.789 375.16H366.999V375.038H372.789V375.16ZM361.214 375.16H355.424V375.038H361.214V375.16ZM349.639 375.16H343.849V375.038H349.639V375.16ZM338.059 375.16H332.273V375.038H338.059V375.16ZM326.483 375.16H320.698V375.038H326.483V375.16ZM314.908 375.16H309.138V375.038H314.928L314.908 375.16ZM303.333 375.16H297.543V375.038H303.333V375.16ZM291.753 375.16H285.968V375.038H291.753V375.16ZM280.178 375.16H274.393V375.038H280.187L280.178 375.16ZM268.602 375.16H262.812V375.038H268.602V375.16ZM257.027 375.16H251.237V375.038H257.027V375.16ZM245.447 375.16H239.662V375.038H245.447V375.16Z" fill="#F2F2F2"/>
<path opacity="0.2" d="M497.285 375.038H494.341V375.16H497.285V375.038Z" fill="#F2F2F2"/>
<path opacity="0.2" d="M233.872 375.038H230.928V375.16H233.872V375.038Z" fill="#F2F2F2"/>
<path opacity="0.2" d="M488.551 375.16H482.766V375.038H488.551V375.16ZM476.976 375.16H471.191V375.038H476.976V375.16ZM465.401 375.16H459.611V375.038H465.401V375.16ZM453.826 375.16H448.035V375.038H453.826V375.16ZM442.25 375.16H436.46V375.038H442.25V375.16ZM430.67 375.16H424.885V375.038H430.67V375.16ZM419.095 375.16H413.305V375.038H419.095V375.16ZM407.52 375.16H401.73V375.038H407.52V375.16ZM395.945 375.16H390.154V375.038H395.945V375.16ZM384.364 375.16H378.579V375.038H384.364V375.16ZM372.789 375.16H366.999V375.038H372.789V375.16ZM361.214 375.16H355.424V375.038H361.214V375.16ZM349.639 375.16H343.849V375.038H349.639V375.16ZM338.059 375.16H332.273V375.038H338.059V375.16ZM326.483 375.16H320.698V375.038H326.483V375.16ZM314.908 375.16H309.138V375.038H314.928L314.908 375.16ZM303.333 375.16H297.543V375.038H303.333V375.16ZM291.753 375.16H285.968V375.038H291.753V375.16ZM280.178 375.16H274.393V375.038H280.187L280.178 375.16ZM268.602 375.16H262.812V375.038H268.602V375.16ZM257.027 375.16H251.237V375.038H257.027V375.16ZM245.447 375.16H239.662V375.038H245.447V375.16Z" fill="#F2F2F2"/>
<path opacity="0.2" d="M497.285 375.038H494.341V375.16H497.285V375.038Z" fill="#F2F2F2"/>
</g>
<path d="M264.76 287.024V375.376" stroke="#F2F2F2" stroke-width="0.1" stroke-miterlimit="10"/>
<path d="M300.58 287.024V375.376" stroke="#F2F2F2" stroke-width="0.1" stroke-miterlimit="10"/>
<path d="M336.4 287.024V375.376" stroke="#F2F2F2" stroke-width="0.1" stroke-miterlimit="10"/>
<path d="M372.22 287.024V375.376" stroke="#F2F2F2" stroke-width="0.1" stroke-miterlimit="10"/>
<path d="M408.04 287.024V375.376" stroke="#F2F2F2" stroke-width="0.1" stroke-miterlimit="10"/>
<path d="M443.86 287.024V375.376" stroke="#F2F2F2" stroke-width="0.1" stroke-miterlimit="10"/>
<path d="M479.679 287.024V375.376" stroke="#F2F2F2" stroke-width="0.1" stroke-miterlimit="10"/>
<path opacity="0.3" d="M487.427 281.061L483.33 285.327C483.247 285.416 483.178 285.517 483.124 285.626L480.582 290.858C480.481 291.068 480.319 291.243 480.117 291.359C479.914 291.476 479.682 291.528 479.449 291.51L478.634 291.446C478.398 291.43 478.172 291.341 477.988 291.192C477.804 291.043 477.67 290.841 477.604 290.613L476.819 287.896C476.75 287.659 476.608 287.449 476.412 287.298C476.216 287.147 475.977 287.063 475.73 287.057C475.482 287.051 475.24 287.123 475.037 287.265C474.834 287.406 474.681 287.609 474.601 287.843L473.281 291.706C473.203 291.937 473.054 292.137 472.856 292.279C472.658 292.42 472.421 292.496 472.177 292.496H467.138C466.861 292.495 466.594 292.395 466.384 292.216C466.173 292.036 466.034 291.788 465.989 291.515L464.566 282.616C464.529 282.372 464.414 282.147 464.24 281.973C464.066 281.798 463.841 281.684 463.598 281.646C463.354 281.608 463.105 281.648 462.886 281.76C462.666 281.873 462.489 282.052 462.378 282.272L455.082 296.664C455.006 296.813 454.9 296.944 454.769 297.048C454.639 297.152 454.488 297.227 454.326 297.267C454.163 297.308 453.995 297.313 453.83 297.282C453.666 297.252 453.511 297.186 453.374 297.09L449.036 294.03C448.8 293.864 448.51 293.792 448.223 293.826C447.936 293.86 447.672 294 447.481 294.217L445.837 296.114C445.789 296.17 445.746 296.231 445.71 296.296L441.323 303.881C441.212 304.076 441.046 304.233 440.847 304.335C440.647 304.437 440.422 304.479 440.199 304.455L437.525 304.19C437.338 304.172 437.15 304.199 436.975 304.269L434.581 305.225C434.304 305.329 433.997 305.324 433.723 305.21C433.45 305.096 433.23 304.882 433.109 304.612L432.584 303.411C432.489 303.195 432.332 303.014 432.132 302.89C431.932 302.765 431.7 302.704 431.465 302.714L428.727 302.842C428.557 302.849 428.392 302.894 428.242 302.972C428.091 303.051 427.961 303.162 427.859 303.298L427.083 304.308C426.956 304.474 426.785 304.603 426.59 304.681C426.395 304.759 426.183 304.782 425.976 304.749C425.768 304.716 425.574 304.627 425.413 304.493C425.252 304.358 425.131 304.182 425.062 303.984L424.08 301.214C424.02 301.041 423.919 300.886 423.787 300.759C423.655 300.633 423.495 300.54 423.32 300.487C423.145 300.434 422.96 300.422 422.78 300.454C422.6 300.486 422.43 300.56 422.284 300.67L417.623 304.161L412.471 308.314C412.295 308.455 412.081 308.542 411.857 308.565C411.632 308.588 411.405 308.545 411.205 308.441L407.206 306.367C406.991 306.257 406.748 306.216 406.509 306.25L398.408 307.382C398.173 307.414 397.953 307.516 397.778 307.676C397.603 307.835 397.48 308.044 397.426 308.275L395.989 314.516C395.944 314.711 395.849 314.891 395.715 315.039C395.58 315.187 395.41 315.297 395.22 315.36C395.03 315.422 394.827 315.435 394.631 315.396C394.434 315.358 394.251 315.269 394.1 315.139C393.965 315.024 393.806 314.942 393.635 314.897C393.463 314.853 393.284 314.848 393.111 314.883C392.937 314.918 392.774 314.992 392.633 315.099C392.493 315.206 392.378 315.344 392.299 315.502L391.195 317.713C391.112 317.877 390.992 318.019 390.845 318.128C390.697 318.237 390.526 318.31 390.346 318.341L387.838 318.758C387.677 318.786 387.523 318.848 387.387 318.939L383.437 321.567C383.247 321.695 383.023 321.763 382.794 321.764H380.944C380.717 321.764 380.494 321.698 380.304 321.573C380.114 321.449 379.965 321.271 379.875 321.062L379.384 319.89C379.321 319.748 379.231 319.62 379.118 319.514C379.005 319.407 378.872 319.324 378.727 319.27C378.581 319.215 378.427 319.191 378.271 319.197C378.116 319.203 377.964 319.241 377.824 319.307L373.535 321.312C373.362 321.394 373.172 321.431 372.981 321.422C372.79 321.412 372.605 321.356 372.441 321.259L370.478 320.077C370.297 319.968 370.09 319.911 369.879 319.91H365.547C365.318 319.911 365.094 319.979 364.904 320.106L360.581 322.975C360.414 323.085 360.222 323.151 360.023 323.166C359.823 323.18 359.623 323.143 359.443 323.058L357.48 322.131C357.251 322.025 356.994 321.995 356.747 322.047C356.5 322.099 356.277 322.23 356.111 322.421L355.178 323.485C355.057 323.626 354.902 323.735 354.729 323.804C354.556 323.872 354.368 323.898 354.183 323.879C353.997 323.86 353.819 323.796 353.664 323.693C353.508 323.59 353.38 323.451 353.289 323.288L353.01 322.798C352.934 322.663 352.832 322.544 352.709 322.448C352.587 322.353 352.446 322.283 352.296 322.243C352.146 322.203 351.989 322.193 351.836 322.214C351.682 322.235 351.534 322.287 351.4 322.367L348 324.382C347.824 324.483 347.624 324.536 347.421 324.536C347.218 324.536 347.018 324.483 346.842 324.382L345.438 323.602C345.28 323.513 345.103 323.463 344.921 323.455C344.74 323.447 344.559 323.483 344.393 323.558L343.059 324.166C342.909 324.233 342.746 324.268 342.581 324.269C342.417 324.269 342.254 324.235 342.104 324.168C341.953 324.102 341.819 324.004 341.708 323.882C341.598 323.76 341.515 323.616 341.464 323.46L340.6 320.891C340.527 320.655 340.379 320.449 340.179 320.303C339.98 320.158 339.739 320.08 339.491 320.082H338.235C338.037 320.082 337.843 320.032 337.671 319.935L332.847 317.292C332.651 317.186 332.428 317.138 332.206 317.155C331.983 317.171 331.77 317.251 331.591 317.385L328.054 320.033C327.853 320.183 327.608 320.264 327.357 320.263H322.906C322.677 320.263 322.453 320.332 322.263 320.459L321.429 321.013C321.292 321.105 321.137 321.167 320.974 321.194C320.811 321.221 320.644 321.214 320.484 321.171C320.325 321.129 320.176 321.054 320.048 320.949C319.92 320.845 319.815 320.715 319.741 320.567L319.54 320.17C319.445 319.976 319.297 319.812 319.113 319.698C318.929 319.583 318.717 319.523 318.5 319.523H316.267C316.09 319.523 315.915 319.564 315.756 319.642C315.597 319.72 315.458 319.834 315.35 319.974L313.966 321.744C313.851 321.891 313.703 322.008 313.534 322.085C313.364 322.163 313.178 322.199 312.992 322.189C312.806 322.18 312.625 322.127 312.464 322.033C312.303 321.939 312.167 321.808 312.067 321.651L311.675 321.038C311.513 320.781 311.256 320.598 310.961 320.529C310.665 320.459 310.354 320.508 310.095 320.665L308.946 321.352C308.751 321.468 308.525 321.526 308.298 321.516C308.07 321.506 307.851 321.431 307.666 321.298L303.038 317.949C302.956 317.89 302.867 317.841 302.774 317.802L299.157 316.414C298.876 316.312 298.565 316.322 298.291 316.442C298.017 316.563 297.8 316.785 297.685 317.061L295.168 323.19C295.131 323.277 295.107 323.367 295.094 323.46L294.28 328.981C294.244 329.215 294.138 329.432 293.976 329.604L292.253 331.452C292.075 331.641 291.839 331.765 291.582 331.805C291.325 331.845 291.063 331.798 290.835 331.673L287.847 330.016C287.698 329.933 287.533 329.883 287.363 329.871C287.193 329.858 287.023 329.883 286.863 329.944C286.704 330.005 286.56 330.1 286.442 330.223C286.324 330.345 286.234 330.492 286.179 330.653L284.285 336.189C284.242 336.31 284.22 336.438 284.221 336.567V340.058C284.22 340.284 284.154 340.505 284.029 340.694C283.904 340.883 283.727 341.032 283.519 341.122L280.482 342.465C280.313 342.538 280.129 342.57 279.946 342.558C279.763 342.546 279.585 342.491 279.427 342.397L277.14 341.053C276.912 340.92 276.646 340.868 276.385 340.906L272.376 341.48C272.146 341.512 271.913 341.476 271.704 341.374C271.496 341.273 271.323 341.112 271.208 340.911L270.531 339.754C270.385 339.504 270.15 339.319 269.873 339.234L268.053 338.665C267.841 338.598 267.613 338.593 267.398 338.651C267.183 338.709 266.99 338.828 266.841 338.994L264.314 341.798C264.114 342.018 263.839 342.155 263.543 342.181L259.814 342.495C259.641 342.504 259.473 342.555 259.324 342.642L252.822 346.378C252.619 346.493 252.386 346.545 252.154 346.527C251.921 346.508 251.699 346.421 251.517 346.275L249.672 344.804C249.465 344.64 249.209 344.55 248.946 344.549H241.958C241.784 344.55 241.611 344.511 241.454 344.435C241.297 344.36 241.159 344.249 241.05 344.113L239.289 341.916C239.183 341.785 239.05 341.678 238.9 341.603C238.749 341.528 238.583 341.487 238.415 341.482C238.246 341.478 238.079 341.51 237.924 341.576C237.769 341.643 237.63 341.742 237.518 341.867L235.398 344.221C235.206 344.433 235.099 344.709 235.098 344.995V374.239C235.098 374.547 235.221 374.842 235.439 375.06C235.657 375.278 235.953 375.401 236.261 375.401H488.34C488.493 375.401 488.645 375.371 488.786 375.312C488.928 375.253 489.056 375.167 489.164 375.059C489.272 374.95 489.358 374.821 489.416 374.68C489.474 374.538 489.504 374.387 489.503 374.234L489.434 281.89C489.438 281.656 489.371 281.427 489.242 281.231C489.113 281.036 488.929 280.884 488.713 280.794C488.496 280.705 488.258 280.683 488.029 280.73C487.8 280.778 487.59 280.893 487.427 281.061Z" fill="#555555"/>
<path opacity="0.3" d="M487.202 318.929L483.404 321.46C483.271 321.549 483.153 321.66 483.055 321.788L480.695 324.902C480.552 325.086 480.367 325.234 480.156 325.333C479.944 325.432 479.712 325.479 479.478 325.47L478.708 325.431C478.444 325.418 478.188 325.332 477.969 325.184C477.75 325.035 477.576 324.829 477.467 324.588L476.976 323.543C476.866 323.298 476.69 323.089 476.467 322.939C476.244 322.789 475.983 322.705 475.714 322.696C475.445 322.687 475.18 322.754 474.947 322.89C474.715 323.025 474.525 323.222 474.4 323.46L473.418 325.338C473.296 325.568 473.113 325.761 472.889 325.895C472.665 326.029 472.409 326.099 472.148 326.098H467.28C466.959 326.099 466.647 325.993 466.394 325.795C466.141 325.598 465.963 325.321 465.886 325.01L464.719 320.337C464.654 320.076 464.517 319.839 464.324 319.652C464.131 319.466 463.89 319.337 463.627 319.28C463.365 319.223 463.091 319.241 462.839 319.332C462.586 319.422 462.363 319.582 462.197 319.792L455.18 328.658C454.982 328.91 454.705 329.088 454.393 329.163C454.082 329.239 453.754 329.208 453.462 329.074L448.953 327.039C448.717 326.929 448.455 326.885 448.196 326.912C447.937 326.938 447.689 327.035 447.481 327.191L445.867 328.383C445.789 328.441 445.719 328.506 445.656 328.579L441.396 333.291C441.253 333.455 441.075 333.585 440.874 333.67C440.673 333.755 440.456 333.793 440.238 333.782L437.456 333.605C437.305 333.596 437.153 333.609 437.005 333.644L434.497 334.287C434.212 334.361 433.91 334.346 433.633 334.242C433.356 334.138 433.118 333.952 432.952 333.708L432.667 333.286C432.531 333.088 432.348 332.928 432.133 332.819C431.919 332.71 431.681 332.657 431.441 332.664L428.644 332.747C428.321 332.752 428.01 332.87 427.765 333.08L427.078 333.654C426.916 333.79 426.725 333.889 426.519 333.943C426.314 333.997 426.099 334.005 425.89 333.966C425.682 333.927 425.484 333.842 425.312 333.718C425.14 333.594 424.997 333.433 424.895 333.247L424.169 331.933C423.992 331.612 423.698 331.37 423.349 331.258C422.999 331.146 422.62 331.172 422.289 331.33L417.584 333.59L412.377 336.277C412.208 336.365 412.022 336.417 411.831 336.431C411.641 336.446 411.45 336.422 411.269 336.361L407.122 334.988C406.936 334.926 406.739 334.903 406.543 334.919L398.516 335.601C398.243 335.629 397.984 335.732 397.768 335.899C397.551 336.067 397.385 336.291 397.289 336.547L396.126 339.793C396.056 339.988 395.944 340.166 395.799 340.313C395.653 340.461 395.478 340.576 395.284 340.65C395.09 340.723 394.882 340.754 394.675 340.74C394.468 340.726 394.267 340.667 394.085 340.568L394.036 340.543C393.738 340.378 393.39 340.325 393.057 340.393C392.723 340.461 392.424 340.647 392.215 340.916L391.303 342.083C391.06 342.387 390.707 342.582 390.321 342.627L387.809 342.897C387.667 342.911 387.528 342.946 387.397 343L383.417 344.701C383.238 344.775 383.047 344.813 382.853 344.814H380.939C380.705 344.814 380.475 344.757 380.268 344.647C380.061 344.538 379.884 344.38 379.752 344.186L379.477 343.784C379.305 343.533 379.057 343.343 378.769 343.241C378.482 343.14 378.17 343.133 377.878 343.22L373.417 344.569C373.111 344.661 372.783 344.649 372.485 344.534L370.414 343.74C370.258 343.679 370.092 343.645 369.924 343.642H365.478C365.285 343.642 365.095 343.682 364.919 343.76L360.502 345.633C360.192 345.767 359.844 345.786 359.521 345.687L357.338 345.035C357.125 344.971 356.9 344.958 356.682 344.995C356.463 345.033 356.256 345.12 356.076 345.25L355.12 345.951C354.83 346.163 354.471 346.259 354.115 346.22C353.758 346.181 353.428 346.01 353.191 345.741L353.049 345.579C352.856 345.359 352.6 345.203 352.316 345.132C352.032 345.061 351.733 345.078 351.459 345.182L347.902 346.54C347.585 346.655 347.237 346.655 346.92 346.54L345.36 345.981C345.075 345.883 344.767 345.874 344.477 345.956L343.005 346.383C342.682 346.476 342.338 346.453 342.03 346.319C341.723 346.185 341.472 345.947 341.322 345.647L340.772 344.544C340.652 344.306 340.469 344.106 340.242 343.965C340.015 343.825 339.753 343.751 339.486 343.75H338.211C338.044 343.753 337.878 343.726 337.72 343.671L332.769 341.936C332.591 341.872 332.402 341.845 332.214 341.855C332.025 341.865 331.84 341.912 331.67 341.995L328.054 343.73C327.859 343.823 327.646 343.871 327.43 343.872H322.862C322.669 343.873 322.477 343.912 322.298 343.985L321.366 344.387C321.074 344.511 320.75 344.535 320.443 344.456C320.136 344.378 319.864 344.2 319.668 343.951C319.534 343.778 319.362 343.639 319.165 343.543C318.969 343.446 318.753 343.397 318.534 343.397H316.228C315.896 343.396 315.573 343.511 315.315 343.72L313.976 344.819C313.701 345.047 313.35 345.163 312.993 345.145C312.636 345.127 312.298 344.975 312.047 344.721L311.743 344.417C311.547 344.219 311.297 344.083 311.024 344.024C310.752 343.966 310.468 343.988 310.207 344.088L308.873 344.603C308.508 344.739 308.104 344.725 307.749 344.564L303.053 342.387C302.97 342.347 302.883 342.318 302.793 342.299L299.108 341.391C298.818 341.319 298.511 341.339 298.233 341.45C297.955 341.561 297.719 341.757 297.558 342.009L295.242 345.618C295.153 345.757 295.088 345.909 295.05 346.069L294.349 349.134C294.265 349.484 294.055 349.791 293.76 349.997L292.229 351.046C292.042 351.174 291.828 351.256 291.604 351.285C291.379 351.314 291.151 351.289 290.938 351.213L287.788 350.095C287.459 349.979 287.098 349.986 286.774 350.116C286.45 350.246 286.184 350.489 286.027 350.801L284.368 353.9C284.259 354.109 284.202 354.341 284.201 354.576V355.974C284.2 356.288 284.096 356.592 283.906 356.842C283.715 357.092 283.449 357.272 283.146 357.357L280.389 358.121C280.096 358.204 279.785 358.19 279.5 358.082L277.096 357.175C276.893 357.097 276.675 357.067 276.458 357.087L272.312 357.464C272.091 357.486 271.868 357.455 271.661 357.375C271.454 357.295 271.269 357.168 271.12 357.004L270.629 356.459C270.425 356.23 270.15 356.075 269.849 356.018L267.96 355.636C267.767 355.599 267.568 355.601 267.376 355.643C267.184 355.684 267.002 355.763 266.841 355.876L264.353 357.646C264.131 357.802 263.869 357.894 263.597 357.911L259.785 358.112C259.641 358.121 259.499 358.15 259.363 358.2L252.744 360.652C252.558 360.722 252.36 360.752 252.162 360.74C251.964 360.728 251.771 360.675 251.595 360.583L249.682 359.602C249.48 359.499 249.256 359.445 249.029 359.445H241.914C241.586 359.445 241.267 359.333 241.011 359.127L239.289 357.749C239.045 357.554 238.744 357.443 238.431 357.434C238.119 357.425 237.812 357.519 237.557 357.7L235.712 359.014C235.525 359.147 235.373 359.323 235.268 359.527C235.163 359.731 235.108 359.957 235.108 360.186V373.969C235.108 374.35 235.26 374.715 235.529 374.985C235.799 375.254 236.165 375.406 236.546 375.406H488.065C488.447 375.406 488.812 375.254 489.082 374.985C489.352 374.715 489.503 374.35 489.503 373.969L489.434 320.145C489.438 319.884 489.37 319.627 489.238 319.401C489.106 319.175 488.914 318.99 488.685 318.865C488.455 318.74 488.196 318.68 487.934 318.691C487.673 318.702 487.42 318.785 487.202 318.929Z" fill="#555555"/>
<path d="M488.217 321.999C490.114 321.999 491.652 320.462 491.652 318.567C491.652 316.671 490.114 315.134 488.217 315.134C486.32 315.134 484.783 316.671 484.783 318.567C484.783 320.462 486.32 321.999 488.217 321.999Z" fill="#555555"/>
<path opacity="0.3" d="M487.997 352.522L483.33 354.076C483.241 354.107 483.155 354.148 483.075 354.199L480.514 355.891C480.327 356.012 480.108 356.074 479.886 356.067L478.291 356.028C478.143 356.025 477.996 355.991 477.861 355.93C477.726 355.868 477.605 355.78 477.506 355.67L476.524 354.591C476.427 354.483 476.309 354.396 476.177 354.335C476.046 354.273 475.903 354.238 475.758 354.232C475.612 354.226 475.467 354.249 475.331 354.3C475.195 354.351 475.07 354.428 474.964 354.527L473.31 356.077C473.11 356.269 472.842 356.376 472.565 356.376H466.833C466.629 356.377 466.429 356.321 466.255 356.213C466.081 356.106 465.942 355.951 465.852 355.768L464.542 353.154C464.474 353.018 464.378 352.898 464.26 352.801C464.142 352.704 464.005 352.632 463.858 352.591C463.711 352.55 463.558 352.54 463.407 352.562C463.256 352.584 463.111 352.637 462.982 352.718L454.871 357.852C454.625 358.005 454.329 358.057 454.046 357.994L448.492 356.744C448.286 356.695 448.071 356.709 447.873 356.783L445.847 357.533C445.794 357.55 445.743 357.573 445.695 357.602L441.215 360.083C441.042 360.177 440.847 360.224 440.651 360.22L437.334 360.112C437.276 360.107 437.219 360.107 437.162 360.112L433.972 360.519C433.695 360.553 433.414 360.481 433.187 360.318L432.54 359.828C432.348 359.687 432.115 359.612 431.877 359.617L428.379 359.666C428.239 359.666 428.1 359.695 427.971 359.749L426.401 360.411C426.209 360.491 425.998 360.514 425.793 360.478C425.588 360.443 425.397 360.35 425.243 360.21L423.958 359.073C423.826 358.955 423.669 358.87 423.498 358.827C423.327 358.783 423.148 358.782 422.976 358.823L417.608 360.117L412.088 361.544C411.939 361.576 411.785 361.576 411.636 361.544L406.975 360.769C406.9 360.764 406.824 360.764 406.749 360.769L398.128 361.157C397.963 361.164 397.801 361.209 397.656 361.288C397.51 361.367 397.385 361.478 397.289 361.613L395.989 363.402C395.859 363.584 395.676 363.722 395.466 363.796C395.255 363.871 395.026 363.879 394.811 363.819L393.422 363.437C393.274 363.398 393.12 363.39 392.969 363.414C392.818 363.437 392.673 363.492 392.544 363.574L391.155 364.461C390.995 364.56 390.813 364.618 390.625 364.628L387.681 364.79C387.626 364.785 387.57 364.785 387.514 364.79L383.265 365.697C383.189 365.713 383.112 365.721 383.035 365.722H380.542C380.311 365.722 380.085 365.648 379.899 365.511L379.251 365.02C379.137 364.935 379.007 364.874 378.869 364.839C378.731 364.805 378.587 364.798 378.447 364.819L373.142 365.614C373.021 365.633 372.896 365.633 372.774 365.614L370.282 365.123C370.213 365.116 370.144 365.116 370.076 365.123H365.291C365.216 365.116 365.141 365.116 365.066 365.123L360.213 366.153C360.083 366.178 359.95 366.178 359.82 366.153L356.93 365.717C356.748 365.692 356.563 365.712 356.39 365.776L354.536 366.452C354.386 366.508 354.227 366.53 354.068 366.516C353.909 366.503 353.756 366.454 353.618 366.374L352.74 365.883C352.517 365.752 352.253 365.707 351.999 365.756L347.583 366.594C347.451 366.619 347.317 366.619 347.185 366.594L345.061 366.217C344.945 366.2 344.828 366.2 344.712 366.217L342.367 366.555C342.199 366.581 342.028 366.567 341.867 366.514C341.706 366.461 341.559 366.371 341.439 366.251L340.664 365.511C340.457 365.308 340.179 365.194 339.889 365.192H338.029C337.967 365.197 337.905 365.197 337.843 365.192L332.416 364.241C332.269 364.209 332.116 364.209 331.969 364.241L327.867 365.221C327.783 365.241 327.698 365.251 327.612 365.251H322.671C322.596 365.243 322.52 365.243 322.445 365.251L320.772 365.609C320.49 365.687 320.189 365.652 319.933 365.511L319.471 365.212C319.295 365.1 319.091 365.04 318.883 365.04H315.894C315.753 365.041 315.613 365.069 315.482 365.123L313.392 365.977C313.248 366.037 313.093 366.065 312.937 366.059C312.781 366.053 312.628 366.013 312.489 365.942L311.38 365.383C311.165 365.276 310.92 365.241 310.683 365.285L308.495 365.707C308.346 365.739 308.192 365.739 308.043 365.707L302.97 364.53H302.857L298.544 363.996C298.256 363.963 297.968 364.044 297.739 364.221L295.286 366.124C295.148 366.23 295.039 366.368 294.967 366.526L294.417 367.747C294.355 367.881 294.267 368.001 294.157 368.101C294.047 368.2 293.919 368.276 293.779 368.325L291.895 368.968C291.721 369.031 291.533 369.046 291.35 369.012L287.16 368.266C286.993 368.238 286.821 368.248 286.659 368.296C286.496 368.345 286.347 368.43 286.223 368.546L284.559 370.1C284.45 370.203 284.363 370.327 284.304 370.464C284.245 370.602 284.215 370.75 284.216 370.9C284.216 371.163 284.12 371.417 283.947 371.615C283.774 371.814 283.535 371.943 283.274 371.978L280.128 372.415C280.012 372.434 279.892 372.434 279.775 372.415L276.929 371.875C276.844 371.865 276.759 371.865 276.674 371.875L271.919 372.091C271.72 372.099 271.521 372.053 271.345 371.959L270.511 371.503C270.383 371.429 270.241 371.384 270.094 371.37L267.596 371.12C267.431 371.103 267.263 371.123 267.106 371.179L264.162 372.223C264.053 372.262 263.939 372.283 263.823 372.287L259.638 372.4C259.58 372.395 259.523 372.395 259.466 372.4L252.375 373.709C252.222 373.741 252.063 373.741 251.909 373.709L249.495 373.091C249.405 373.07 249.313 373.058 249.22 373.057H241.61C241.47 373.058 241.332 373.032 241.203 372.979L238.818 372.027C238.568 371.932 238.292 371.932 238.043 372.027L235.825 372.817C235.612 372.891 235.428 373.03 235.298 373.213C235.168 373.397 235.098 373.616 235.098 373.841V374.332C235.098 374.475 235.126 374.617 235.18 374.75C235.234 374.883 235.315 375.003 235.416 375.105C235.517 375.206 235.637 375.287 235.77 375.342C235.902 375.397 236.044 375.425 236.188 375.425H488.399C488.542 375.425 488.684 375.397 488.817 375.342C488.949 375.287 489.07 375.206 489.171 375.105C489.272 375.003 489.352 374.883 489.407 374.75C489.461 374.617 489.489 374.475 489.488 374.332L489.424 353.606C489.431 353.43 489.396 353.255 489.321 353.096C489.245 352.937 489.133 352.799 488.993 352.692C488.853 352.586 488.689 352.515 488.516 352.485C488.342 352.456 488.164 352.468 487.997 352.522Z" fill="#555555"/>
<path d="M299.304 345.044C301.201 345.044 302.739 343.508 302.739 341.612C302.739 339.716 301.201 338.18 299.304 338.18C297.408 338.18 295.87 339.716 295.87 341.612C295.87 343.508 297.408 345.044 299.304 345.044Z" fill="#555555"/>
<path d="M464.174 323.47C466.071 323.47 467.609 321.933 467.609 320.038C467.609 318.142 466.071 316.605 464.174 316.605C462.277 316.605 460.739 318.142 460.739 320.038C460.739 321.933 462.277 323.47 464.174 323.47Z" fill="#555555"/>
<path d="M378.795 346.515C380.692 346.515 382.23 344.979 382.23 343.083C382.23 341.188 380.692 339.651 378.795 339.651C376.898 339.651 375.36 341.188 375.36 343.083C375.36 344.979 376.898 346.515 378.795 346.515Z" fill="#555555"/>
<path d="M423.447 334.257C425.344 334.257 426.882 332.72 426.882 330.825C426.882 328.929 425.344 327.393 423.447 327.393C421.55 327.393 420.012 328.929 420.012 330.825C420.012 332.72 421.55 334.257 423.447 334.257Z" fill="#555555"/>
<path d="M489.925 320.116C489.924 319.857 489.853 319.603 489.719 319.38C489.585 319.158 489.393 318.977 489.165 318.854C488.936 318.732 488.678 318.674 488.419 318.687C488.16 318.699 487.909 318.781 487.692 318.925L483.894 321.455C483.761 321.544 483.643 321.655 483.546 321.783L481.186 324.897C481.043 325.081 480.858 325.229 480.646 325.328C480.435 325.427 480.202 325.474 479.969 325.466L479.199 325.426C478.934 325.413 478.678 325.327 478.46 325.179C478.241 325.03 478.067 324.824 477.957 324.583L477.467 323.539C477.357 323.293 477.18 323.084 476.957 322.934C476.734 322.784 476.473 322.7 476.205 322.691C475.936 322.683 475.67 322.75 475.438 322.885C475.205 323.02 475.016 323.217 474.89 323.455L473.909 325.333C473.787 325.563 473.604 325.756 473.38 325.89C473.156 326.024 472.899 326.094 472.638 326.093H467.771C467.45 326.095 467.138 325.988 466.885 325.79C466.632 325.593 466.453 325.316 466.377 325.005L465.209 320.332C465.144 320.071 465.008 319.834 464.815 319.648C464.622 319.461 464.38 319.332 464.118 319.275C463.855 319.218 463.582 319.236 463.329 319.327C463.076 319.418 462.854 319.577 462.687 319.788L455.67 328.653C455.473 328.905 455.195 329.083 454.884 329.158C454.572 329.234 454.245 329.203 453.953 329.069L449.444 327.035C449.208 326.924 448.946 326.88 448.687 326.907C448.427 326.934 448.18 327.03 447.972 327.187L446.357 328.378C446.28 328.436 446.209 328.501 446.146 328.574L441.887 333.286C441.744 333.45 441.565 333.58 441.365 333.665C441.164 333.75 440.947 333.788 440.729 333.777L437.947 333.6C437.795 333.591 437.643 333.604 437.495 333.639L434.988 334.282C434.702 334.356 434.4 334.341 434.124 334.237C433.847 334.134 433.609 333.947 433.442 333.703L433.158 333.281C433.022 333.083 432.838 332.923 432.624 332.814C432.41 332.705 432.171 332.652 431.931 332.659L429.134 332.742C428.812 332.747 428.501 332.865 428.256 333.075L427.569 333.649C427.406 333.786 427.215 333.884 427.01 333.938C426.805 333.992 426.59 334 426.381 333.961C426.172 333.922 425.975 333.838 425.803 333.713C425.63 333.589 425.488 333.428 425.385 333.242L424.659 331.928C424.482 331.607 424.189 331.365 423.84 331.253C423.49 331.141 423.111 331.167 422.78 331.325L418.074 333.585L412.868 336.272C412.698 336.36 412.513 336.412 412.322 336.426C412.132 336.441 411.94 336.417 411.759 336.356L407.613 334.983C407.426 334.922 407.23 334.898 407.034 334.914L399.006 335.601C398.734 335.629 398.475 335.732 398.258 335.899C398.042 336.067 397.876 336.291 397.78 336.547L396.617 339.793C396.546 339.988 396.435 340.166 396.289 340.313C396.144 340.461 395.968 340.576 395.774 340.65C395.58 340.723 395.373 340.754 395.166 340.74C394.959 340.726 394.758 340.667 394.575 340.568L394.526 340.543C394.228 340.378 393.881 340.325 393.547 340.393C393.213 340.461 392.915 340.647 392.706 340.916L391.793 342.083C391.551 342.387 391.198 342.582 390.812 342.627L388.3 342.897C388.158 342.911 388.019 342.946 387.887 343L383.908 344.701C383.729 344.775 383.537 344.813 383.344 344.814H381.43C381.196 344.814 380.965 344.757 380.758 344.647C380.551 344.538 380.374 344.38 380.243 344.186L379.968 343.784C379.795 343.533 379.548 343.343 379.26 343.241C378.973 343.14 378.66 343.133 378.368 343.22L373.908 344.569C373.602 344.661 373.274 344.649 372.976 344.534L370.905 343.74C370.748 343.679 370.582 343.645 370.414 343.642H365.969C365.776 343.642 365.585 343.682 365.409 343.76L360.993 345.633C360.683 345.767 360.335 345.786 360.012 345.687L357.828 345.035C357.616 344.971 357.391 344.958 357.172 344.995C356.954 345.033 356.747 345.12 356.567 345.25L355.61 345.952C355.321 346.163 354.962 346.259 354.605 346.22C354.248 346.181 353.919 346.01 353.682 345.741L353.54 345.579C353.347 345.359 353.091 345.203 352.807 345.132C352.523 345.061 352.224 345.078 351.95 345.182L348.392 346.54C348.075 346.655 347.728 346.655 347.411 346.54L345.851 345.981C345.566 345.883 345.257 345.874 344.967 345.956L343.495 346.383C343.173 346.476 342.828 346.453 342.521 346.319C342.214 346.185 341.963 345.947 341.812 345.648L341.263 344.544C341.143 344.306 340.959 344.106 340.732 343.965C340.505 343.825 340.244 343.751 339.977 343.75H338.701C338.534 343.753 338.368 343.726 338.211 343.671L333.26 341.936C333.082 341.872 332.893 341.845 332.704 341.855C332.515 341.865 332.331 341.912 332.161 341.995L328.544 343.73C328.349 343.823 328.137 343.871 327.921 343.873H323.353C323.159 343.873 322.968 343.912 322.788 343.985L321.856 344.387C321.565 344.511 321.24 344.535 320.933 344.456C320.627 344.378 320.354 344.2 320.158 343.951C320.024 343.778 319.852 343.639 319.656 343.543C319.46 343.446 319.244 343.397 319.025 343.397H316.719C316.386 343.396 316.064 343.511 315.806 343.721L314.466 344.819C314.191 345.047 313.84 345.163 313.483 345.145C313.126 345.127 312.789 344.975 312.538 344.721L312.234 344.417C312.037 344.219 311.788 344.083 311.515 344.024C311.242 343.966 310.958 343.988 310.698 344.088L309.363 344.603C308.998 344.739 308.594 344.725 308.24 344.564L303.544 342.387C303.461 342.347 303.374 342.318 303.284 342.299L299.599 341.391C299.308 341.319 299.002 341.339 298.724 341.45C298.445 341.561 298.209 341.757 298.048 342.009L295.732 345.618C295.644 345.757 295.579 345.909 295.541 346.069L294.839 349.134C294.755 349.484 294.546 349.791 294.25 349.997L292.719 351.046C292.533 351.174 292.319 351.256 292.094 351.285C291.87 351.314 291.642 351.29 291.429 351.213L288.279 350.095C287.949 349.979 287.589 349.986 287.265 350.116C286.941 350.246 286.675 350.489 286.517 350.801L284.859 353.9C284.75 354.109 284.692 354.341 284.692 354.576V355.974C284.691 356.288 284.587 356.593 284.396 356.842C284.206 357.092 283.939 357.272 283.637 357.357L280.879 358.122C280.587 358.204 280.275 358.19 279.991 358.082L277.587 357.175C277.384 357.097 277.165 357.067 276.949 357.087L272.803 357.464C272.582 357.486 272.359 357.455 272.152 357.375C271.945 357.295 271.759 357.168 271.61 357.004L271.12 356.459C270.915 356.23 270.641 356.075 270.339 356.018L268.45 355.636C268.257 355.599 268.059 355.601 267.867 355.643C267.674 355.684 267.492 355.763 267.331 355.876L264.844 357.646C264.621 357.802 264.36 357.894 264.088 357.911L260.275 358.112C260.131 358.121 259.989 358.15 259.853 358.2L253.234 360.652C253.049 360.722 252.851 360.752 252.653 360.74C252.455 360.728 252.262 360.675 252.086 360.583L250.172 359.602C249.97 359.499 249.747 359.446 249.52 359.445H242.405C242.076 359.445 241.758 359.333 241.502 359.127L239.78 357.749C239.536 357.554 239.234 357.443 238.922 357.434C238.609 357.425 238.302 357.519 238.048 357.7L236.203 359.014C236.016 359.147 235.864 359.323 235.759 359.527C235.654 359.731 235.599 359.957 235.599 360.186" stroke="#555555" stroke-miterlimit="10"/>
<path opacity="0.2" d="M507.845 395.524H220.795V395.573H507.845V395.524Z" fill="#F2F2F2"/>
<path opacity="0.3" d="M253.028 398C254.383 398 255.482 396.902 255.482 395.548C255.482 394.194 254.383 393.097 253.028 393.097C251.673 393.097 250.575 394.194 250.575 395.548C250.575 396.902 251.673 398 253.028 398Z" fill="#555555"/>
<path opacity="0.3" d="M288.849 398C290.203 398 291.302 396.902 291.302 395.548C291.302 394.194 290.203 393.097 288.849 393.097C287.494 393.097 286.395 394.194 286.395 395.548C286.395 396.902 287.494 398 288.849 398Z" fill="#555555"/>
<path opacity="0.3" d="M324.668 398C326.023 398 327.122 396.902 327.122 395.548C327.122 394.194 326.023 393.097 324.668 393.097C323.313 393.097 322.215 394.194 322.215 395.548C322.215 396.902 323.313 398 324.668 398Z" fill="#555555"/>
<path opacity="0.3" d="M360.488 398C361.843 398 362.942 396.902 362.942 395.548C362.942 394.194 361.843 393.097 360.488 393.097C359.133 393.097 358.035 394.194 358.035 395.548C358.035 396.902 359.133 398 360.488 398Z" fill="#555555"/>
<path opacity="0.3" d="M396.308 398C397.663 398 398.762 396.902 398.762 395.548C398.762 394.194 397.663 393.097 396.308 393.097C394.953 393.097 393.855 394.194 393.855 395.548C393.855 396.902 394.953 398 396.308 398Z" fill="#555555"/>
<path opacity="0.3" d="M432.128 398C433.483 398 434.581 396.902 434.581 395.548C434.581 394.194 433.483 393.097 432.128 393.097C430.773 393.097 429.675 394.194 429.675 395.548C429.675 396.902 430.773 398 432.128 398Z" fill="#555555"/>
<path opacity="0.3" d="M467.948 398C469.303 398 470.401 396.902 470.401 395.548C470.401 394.194 469.303 393.097 467.948 393.097C466.593 393.097 465.494 394.194 465.494 395.548C465.494 396.902 466.593 398 467.948 398Z" fill="#555555"/>
<path d="M171.357 128H136.643C136.472 128 136.309 127.931 136.188 127.81C136.068 127.688 136 127.523 136 127.35V118.65C136 118.477 136.068 118.312 136.188 118.19C136.309 118.069 136.472 118 136.643 118H171.357C171.528 118 171.691 118.069 171.811 118.19C171.932 118.312 172 118.477 172 118.65V127.351C172 127.523 171.932 127.688 171.811 127.81C171.691 127.931 171.528 128 171.357 128ZM136.643 118.26C136.541 118.26 136.443 118.301 136.37 118.374C136.298 118.447 136.257 118.546 136.257 118.65V127.351C136.257 127.454 136.298 127.553 136.37 127.626C136.443 127.699 136.541 127.74 136.643 127.74H171.357C171.459 127.74 171.557 127.699 171.63 127.626C171.702 127.553 171.743 127.454 171.743 127.351V118.65C171.743 118.546 171.702 118.447 171.63 118.374C171.557 118.301 171.459 118.26 171.357 118.26H136.643Z" fill="#CCCCCC"/>
<path d="M141.5 126C142.881 126 144 124.881 144 123.5C144 122.119 142.881 121 141.5 121C140.119 121 139 122.119 139 123.5C139 124.881 140.119 126 141.5 126Z" fill="#CCCCCC"/>
<path d="M147.44 124C147.323 124.002 147.211 124.056 147.129 124.149C147.046 124.243 147 124.369 147 124.5C147 124.631 147.046 124.757 147.129 124.851C147.211 124.944 147.323 124.998 147.44 125H168.544C168.603 125.001 168.661 124.989 168.716 124.965C168.771 124.941 168.821 124.905 168.863 124.86C168.906 124.814 168.939 124.76 168.963 124.699C168.986 124.639 168.999 124.574 169 124.508C169.001 124.442 168.99 124.377 168.969 124.316C168.947 124.255 168.915 124.199 168.874 124.152C168.833 124.105 168.784 124.067 168.73 124.041C168.676 124.015 168.617 124.001 168.559 124C168.554 124 168.549 124 168.544 124H147.44Z" fill="#CCCCCC"/>
<path d="M171.357 142H136.643C136.472 142 136.309 141.938 136.188 141.829C136.068 141.719 136 141.57 136 141.415V133.585C136 133.43 136.068 133.281 136.188 133.171C136.309 133.062 136.472 133 136.643 133H171.357C171.528 133 171.691 133.062 171.811 133.171C171.932 133.281 172 133.43 172 133.585V141.416C172 141.57 171.932 141.719 171.811 141.829C171.691 141.938 171.528 142 171.357 142ZM136.643 133.234C136.541 133.234 136.443 133.271 136.37 133.337C136.298 133.402 136.257 133.492 136.257 133.585V141.416C136.257 141.509 136.298 141.598 136.37 141.663C136.443 141.729 136.541 141.766 136.643 141.766H171.357C171.459 141.766 171.557 141.729 171.63 141.663C171.702 141.598 171.743 141.509 171.743 141.416V133.585C171.743 133.492 171.702 133.402 171.63 133.337C171.557 133.271 171.459 133.234 171.357 133.234H136.643Z" fill="#CCCCCC"/>
<path d="M141.5 140C142.881 140 144 138.881 144 137.5C144 136.119 142.881 135 141.5 135C140.119 135 139 136.119 139 137.5C139 138.881 140.119 140 141.5 140Z" fill="#CCCCCC"/>
<path d="M147.44 135C147.323 135.004 147.211 135.112 147.129 135.299C147.046 135.486 147 135.738 147 136C147 136.262 147.046 136.514 147.129 136.701C147.211 136.888 147.323 136.995 147.44 137H168.544C168.603 137.002 168.661 136.979 168.716 136.931C168.771 136.883 168.821 136.811 168.863 136.72C168.906 136.628 168.939 136.519 168.963 136.398C168.986 136.278 168.999 136.148 169 136.016C169.001 135.885 168.99 135.754 168.969 135.632C168.947 135.51 168.915 135.398 168.874 135.304C168.833 135.209 168.784 135.134 168.73 135.082C168.676 135.03 168.617 135.002 168.559 135C168.554 135 168.549 135 168.544 135H147.44Z" fill="#CCCCCC"/>
<path d="M147.44 138C147.323 138.002 147.211 138.056 147.129 138.149C147.046 138.243 147 138.369 147 138.5C147 138.631 147.046 138.757 147.129 138.851C147.211 138.944 147.323 138.998 147.44 139H168.544C168.603 139.001 168.661 138.989 168.716 138.965C168.771 138.941 168.821 138.905 168.863 138.86C168.906 138.814 168.939 138.76 168.963 138.699C168.986 138.639 168.999 138.574 169 138.508C169.001 138.442 168.99 138.377 168.969 138.316C168.947 138.255 168.915 138.199 168.874 138.152C168.833 138.105 168.784 138.067 168.73 138.041C168.676 138.015 168.617 138.001 168.559 138C168.554 138 168.549 138 168.544 138H147.44Z" fill="#CCCCCC"/>
<path d="M142.181 102L142 101.828L146.781 97.2889L149.946 100.293L156.202 94.3529L158.245 96.2926L163.819 91L164 91.1714L158.245 96.6355L156.202 94.6958L149.946 100.636L146.781 97.6318L142.181 102Z" fill="#CCCCCC"/>
<path d="M153.499 110C151.859 110.001 150.234 109.691 148.718 109.089C147.202 108.487 145.824 107.604 144.663 106.49C143.502 105.377 142.582 104.055 141.953 102.6C141.325 101.145 141.001 99.5853 141 98.0101V98.0001C141 97.9749 141 97.9485 141.002 97.9233C141.04 91.3517 146.646 86 153.499 86C156.814 85.9996 159.994 87.2636 162.338 89.5137C164.682 91.7639 166 94.816 166 97.9986C166 101.181 164.684 104.234 162.34 106.484C159.996 108.735 156.817 110 153.502 110H153.499V110ZM153.499 86.2524C150.269 86.2593 147.172 87.4898 144.881 89.6766C142.59 91.8633 141.291 94.8296 141.265 97.9309C141.263 97.9577 141.263 97.9797 141.263 97.9997C141.263 100.323 141.98 102.595 143.325 104.527C144.669 106.459 146.58 107.966 148.816 108.855C151.053 109.745 153.513 109.978 155.887 109.524C158.261 109.071 160.442 107.953 162.153 106.31C163.865 104.667 165.031 102.574 165.503 100.295C165.976 98.0157 165.734 95.6534 164.808 93.5064C163.882 91.3595 162.314 89.5244 160.301 88.2332C158.289 86.942 155.923 86.2526 153.503 86.2524H153.499Z" fill="#CCCCCC"/>
<path d="M53.4778 239.985L98.016 258.057L66.008 280.634L21.4698 262.562L53.4778 239.985ZM20.9335 263.424L65.573 281.537L65.573 321.381L20.9335 303.212L20.9335 263.424ZM98.5523 297.58L66.573 321.135V281.459L98.5523 258.902L98.5523 297.58Z" fill="white" stroke="#1D1D1D"/>
<path d="M73.4318 285.289L105.411 262.731L105.411 301.41L73.4318 324.965L73.4318 285.289Z" fill="white" stroke="#1D1D1D"/>
<path d="M86 291.346C86 290.724 86.2107 289.998 86.5858 289.328C86.9609 288.658 87.4696 288.099 88 287.774L90 286.549V291.24L88 292.466C87.4696 292.791 86.9609 292.855 86.5858 292.645C86.2107 292.435 86 291.968 86 291.346Z" stroke="#1D1D1D" stroke-width="1.34037" stroke-linecap="round" stroke-linejoin="round"/>
<path d="M90 286.549L92 285.323C92.2627 285.162 92.5227 285.064 92.7654 285.033C93.008 285.002 93.2285 285.04 93.4142 285.144C93.5999 285.248 93.7473 285.416 93.8478 285.639C93.9483 285.862 94 286.135 94 286.443C94 286.751 93.9483 287.088 93.8478 287.434C93.7473 287.78 93.5999 288.129 93.4142 288.461C93.2285 288.792 93.008 289.1 92.7654 289.367C92.5227 289.634 92.2627 289.854 92 290.015L90 291.24V286.549Z" stroke="#1D1D1D" stroke-width="1.34037" stroke-linecap="round" stroke-linejoin="round"/>
<path d="M90 293.586C90 293.278 90.0517 292.941 90.1523 292.595C90.2528 292.249 90.4001 291.9 90.5858 291.568C90.7715 291.237 90.992 290.929 91.2346 290.662C91.4773 290.396 91.7374 290.175 92 290.015C92.2627 289.854 92.5227 289.755 92.7654 289.724C93.008 289.693 93.2285 289.731 93.4142 289.835C93.5999 289.939 93.7473 290.107 93.8478 290.33C93.9483 290.553 94 290.827 94 291.135C94 291.443 93.9483 291.779 93.8478 292.126C93.7473 292.472 93.5999 292.821 93.4142 293.152C93.2285 293.484 93.008 293.792 92.7654 294.058C92.5227 294.325 92.2627 294.545 92 294.706C91.7374 294.867 91.4773 294.965 91.2346 294.996C90.992 295.027 90.7715 294.989 90.5858 294.885C90.4001 294.781 90.2528 294.613 90.1523 294.39C90.0517 294.167 90 293.894 90 293.586V293.586Z" stroke="#1D1D1D" stroke-width="1.34037" stroke-linecap="round" stroke-linejoin="round"/>
<path d="M86 300.728C86 300.106 86.2107 299.38 86.5858 298.711C86.9609 298.041 87.4696 297.482 88 297.157L90 295.931V298.277C90 298.899 89.7893 299.625 89.4142 300.295C89.0391 300.964 88.5304 301.523 88 301.848C87.4696 302.173 86.9609 302.238 86.5858 302.028C86.2107 301.818 86 301.35 86 300.728Z" stroke="#1D1D1D" stroke-width="1.34037" stroke-linecap="round" stroke-linejoin="round"/>
<path d="M86 296.037C86 295.415 86.2107 294.689 86.5858 294.019C86.9609 293.35 87.4696 292.791 88 292.466L90 291.24V295.931L88 297.157C87.4696 297.482 86.9609 297.547 86.5858 297.337C86.2107 297.127 86 296.659 86 296.037Z" stroke="#1D1D1D" stroke-width="1.34037" stroke-linecap="round" stroke-linejoin="round"/>
<path d="M596.441 348.965L576.228 357.167L590.694 367.371L610.907 359.169L596.441 348.965ZM611.336 359.858L591.042 368.093L591.042 386.144L611.336 377.884L611.336 359.858ZM575.799 375.309L590.242 385.947V368.031L575.799 357.843L575.799 375.309Z" fill="white" stroke="#1D1D1D" stroke-width="0.799708"/>
<path d="M590.062 385.91L590.062 367.994L575.619 357.807L575.619 375.272L590.062 385.91Z" fill="#1D1D1D" stroke="#1D1D1D" stroke-width="0.799708"/>
<path d="M458.446 108.423L466.163 111.555L460.64 115.451L452.922 112.319L458.446 108.423ZM452.759 112.582L460.507 115.726L460.507 122.619L452.759 119.465L452.759 112.582ZM466.327 118.482L460.813 122.543L460.813 115.703L466.327 111.813V118.482Z" fill="white" stroke="black" stroke-width="0.305343"/>
<path d="M460.881 115.689L466.396 111.799L466.396 118.468L460.881 122.529L460.881 115.689Z" fill="black" stroke="black" stroke-width="0.305343"/>
<path d="M154.604 290.89L143.579 295.364L151.469 300.93L162.495 296.456L154.604 290.89ZM162.729 296.832L151.659 301.323L151.659 311.169L162.729 306.664L162.729 296.832ZM143.345 305.259L151.223 311.062L151.223 301.29L143.345 295.733L143.345 305.259Z" fill="white" stroke="black" stroke-width="0.436204"/>
<path d="M151.125 301.27L143.247 295.713L143.247 305.239L151.125 311.042L151.125 301.27Z" fill="black" stroke="black" stroke-width="0.436204"/>
<path d="M419.494 139.89L430.519 144.364L422.629 149.93L411.603 145.456L419.494 139.89ZM411.369 145.832L422.439 150.323L422.439 160.169L411.369 155.664L411.369 145.832ZM430.753 154.259L422.875 160.062L422.875 150.29L430.753 144.733L430.753 154.259Z" fill="white" stroke="black" stroke-width="0.436204"/>
<path d="M422.973 150.27L430.851 144.713L430.851 154.239L422.973 160.042L422.973 150.27Z" fill="black" stroke="black" stroke-width="0.436204"/>
<path d="M170.482 318.087L163.522 320.911L168.503 324.425L175.463 321.601L170.482 318.087ZM175.61 321.838L168.623 324.673L168.623 330.889L175.61 328.044L175.61 321.838ZM163.374 327.158L168.347 330.821L168.347 324.652L163.374 321.144V327.158Z" fill="white" stroke="black" stroke-width="0.275362"/>
<path d="M168.285 324.639L163.312 321.131L163.312 327.145L168.285 330.808L168.285 324.639Z" fill="black" stroke="black" stroke-width="0.275362"/>
<path d="M611.5 114H522V124H611.5V114Z" fill="#1D1D1D"/>
<path d="M522 124V174H611.5V124M522 124V114H611.5V124M522 124H611.5" stroke="#1D1D1D"/>
<path d="M527 118.5H532V118H527V118.5Z" fill="white"/>
<path d="M527 120.5H532V120H527V120.5Z" fill="white"/>
<path d="M567.5 174.5V273H521.5" stroke="black"/>
<circle cx="567" cy="174" r="10" fill="#1D1D1D"/>
<path d="M571.583 173.278C572.139 173.599 572.139 174.401 571.583 174.722L565.333 178.33C564.778 178.651 564.083 178.25 564.083 177.608L564.083 170.392C564.083 169.75 564.778 169.349 565.333 169.67L571.583 173.278Z" fill="white"/>
<line x1="194" y1="57.5" x2="254" y2="57.5" stroke="#CCCCCC"/>
<line x1="194" y1="67.5" x2="254" y2="67.5" stroke="#CCCCCC"/>
<line x1="194" y1="77.5" x2="254" y2="77.5" stroke="#CCCCCC"/>
<line x1="194" y1="87.5" x2="254" y2="87.5" stroke="#CCCCCC"/>
<line x1="194" y1="97.5" x2="254" y2="97.5" stroke="#CCCCCC"/>
<rect x="537" y="133" width="10" height="10" fill="#CCCCCC"/>
<rect x="537" y="147" width="10" height="10" fill="#CCCCCC"/>
<line x1="555" y1="138.5" x2="597" y2="138.5" stroke="#CCCCCC"/>
<line x1="555" y1="152.5" x2="597" y2="152.5" stroke="#CCCCCC"/>
</svg>
