<svg width="38" height="38" viewBox="0 0 38 38" fill="none" xmlns="http://www.w3.org/2000/svg">
<g clip-path="url(#clip0)">
<path d="M12.0386 19.6354C12.0386 19.9851 12.3221 20.2686 12.6718 20.2686H17.7376C18.0873 20.2686 18.3708 19.9851 18.3708 19.6354V14.5696C18.3652 13.14 17.4018 11.8914 16.0203 11.5232C17.4806 10.0314 17.4636 7.64039 15.982 6.16958C14.5007 4.69876 12.1097 4.69876 10.6284 6.16958C9.14674 7.64039 9.12974 10.0314 10.59 11.5232C9.20827 11.8914 8.24515 13.14 8.23927 14.5696V16.7466C8.23927 17.0963 8.5228 17.3799 8.87249 17.3799C9.22219 17.3799 9.50571 17.0963 9.50571 16.7466V14.5696C9.50571 13.5206 10.3563 12.67 11.4054 12.67H15.2047C16.2541 12.67 17.1044 13.5206 17.1044 14.5696V19.0022H12.6718C12.3221 19.0022 12.0386 19.2857 12.0386 19.6354ZM13.305 6.33778C14.7041 6.33778 15.8379 7.47189 15.8379 8.87066C15.8379 10.2694 14.7041 11.4035 13.305 11.4035C11.9063 11.4035 10.7722 10.2694 10.7722 8.87066C10.7722 7.47189 11.9063 6.33778 13.305 6.33778Z" fill="#1D1D1D"/>
<path d="M15.2047 15.8361C15.5544 15.8361 15.8379 15.5526 15.8379 15.2029C15.8379 14.8532 15.5544 14.5696 15.2047 14.5696H13.9383C13.5886 14.5696 13.305 14.8532 13.305 15.2029C13.305 15.5526 13.5886 15.8361 13.9383 15.8361H15.2047Z" fill="#1D1D1D"/>
<path d="M37.4452 32.0693L29.8333 24.4574C29.2563 23.9092 28.4042 23.7666 27.6804 24.0975L24.3245 20.7415C28.3442 14.7912 26.9139 6.72409 21.0931 2.5188C15.2723 -1.6868 7.16413 -0.511261 2.77734 5.17412C-1.60913 10.8595 -0.6896 19.0008 4.85479 23.5644C5.12471 23.7867 5.52388 23.7484 5.74618 23.4781C5.9688 23.2082 5.93015 22.8091 5.66023 22.5868C0.559836 18.4093 -0.234782 10.9077 3.87775 5.75478C7.98997 0.601822 15.4807 -0.287717 20.6856 3.75896C25.8902 7.80563 26.8747 15.2846 22.8945 20.5402C22.7426 20.7415 22.5881 20.9397 22.4239 21.1302C22.41 21.1475 22.3942 21.1626 22.3797 21.1796C22.0114 21.6035 21.6138 22.0012 21.1899 22.3694C21.1701 22.3867 21.1519 22.4056 21.1318 22.4226C20.9416 22.5843 20.7478 22.7392 20.5496 22.887C18.4681 24.4734 15.9235 25.3333 13.3062 25.3342C13.1055 25.3342 12.9061 25.324 12.7079 25.3135C12.3582 25.294 12.0592 25.5621 12.0397 25.9118C12.0206 26.2615 12.2886 26.5605 12.6383 26.5799C12.8606 26.5917 13.0814 26.6025 13.3062 26.6025C15.9575 26.6053 18.5485 25.8113 20.7428 24.3229L24.4605 28.0406C24.7079 28.2879 25.1086 28.2879 25.3559 28.0406L28.0425 25.354C28.2935 25.1153 28.6874 25.1153 28.9385 25.354L36.5498 32.9666C36.7966 33.2136 36.7966 33.614 36.5498 33.861L33.8639 36.5479C33.7452 36.6669 33.5838 36.7337 33.4159 36.7337C33.2477 36.7337 33.0866 36.6669 32.9679 36.5479L27.9794 31.5594C27.7308 31.3195 27.336 31.3229 27.0917 31.5672C26.8475 31.8114 26.844 32.2063 27.084 32.4549L32.0724 37.4433C32.8142 38.1854 34.0173 38.1854 34.7593 37.4433L37.4452 34.7571C38.1873 34.0153 38.1873 32.8123 37.4452 32.0705V32.0693ZM23.5574 21.7634L26.699 24.9051L24.9082 26.6962L21.7662 23.5542C22.4183 23.0153 23.0181 22.4155 23.5574 21.7634Z" fill="#1D1D1D"/>
<path d="M13.305 22.8015C12.9553 22.8015 12.6718 23.085 12.6718 23.4347C12.6718 23.7844 12.9553 24.0679 13.305 24.0679C16.6378 24.0788 19.7863 22.5405 21.8257 19.9047C23.8654 17.2692 24.5645 13.8353 23.7179 10.612C23.6304 10.2734 23.2851 10.0697 22.9462 10.1572C22.6076 10.2444 22.4039 10.59 22.4914 10.9286C23.2405 13.7725 22.6249 16.8035 20.8251 19.1296C19.0254 21.4559 16.2464 22.8126 13.305 22.8015Z" fill="#1D1D1D"/>
<path d="M18.5133 3.88407C13.7255 1.22998 7.70777 2.59475 4.53332 7.05481C1.35887 11.5146 2.04002 17.6473 6.11545 21.302C6.28334 21.4575 6.52172 21.5104 6.73939 21.4405C6.95675 21.3706 7.12 21.1891 7.16607 20.9653C7.21214 20.7411 7.13392 20.5098 6.96139 20.3599C3.3686 17.1344 2.7697 11.726 5.56942 7.79253C8.36913 3.85871 13.6758 2.6538 17.8999 4.9922C18.2057 5.16164 18.5912 5.05095 18.7607 4.74485C18.9301 4.43906 18.8194 4.0535 18.5133 3.88407Z" fill="#1D1D1D"/>
<path d="M5.70639 33.5662C5.35669 33.5662 5.07317 33.8498 5.07317 34.1994C5.07317 34.5491 5.35669 34.8327 5.70639 34.8327H9.50571C9.8554 34.8327 10.1389 34.5491 10.1389 34.1994C10.1389 33.8498 9.8554 33.5662 9.50571 33.5662H5.70639Z" fill="#1D1D1D"/>
<path d="M17.7376 27.8673H10.7722V19.6354C10.7734 19.3479 10.5805 19.0959 10.3028 19.0217C10.0252 18.9472 9.73205 19.0693 9.58951 19.3188L4.70586 27.8673H3.80674C2.75765 27.8673 1.90707 28.7179 1.90707 29.7669V36.0991C1.90707 37.1482 2.75765 37.9988 3.80674 37.9988H17.7376C18.787 37.9988 19.6372 37.1482 19.6372 36.0991V34.8327C19.6372 34.483 19.3537 34.1995 19.004 34.1995C18.6543 34.1995 18.3708 34.483 18.3708 34.8327V36.0991C18.3708 36.4488 18.0873 36.7324 17.7376 36.7324H3.80674C3.45704 36.7324 3.17351 36.4488 3.17351 36.0991V29.7669C3.17351 29.4172 3.45704 29.1337 3.80674 29.1337H5.07318C5.29981 29.1343 5.50944 29.0134 5.62292 28.8171L9.50572 22.0202V28.5005C9.50572 28.8502 9.78925 29.1337 10.1389 29.1337H17.7376C18.0873 29.1337 18.3708 29.4172 18.3708 29.7669V31.0334C18.3708 31.3831 18.6543 31.6666 19.004 31.6666C19.3537 31.6666 19.6372 31.3831 19.6372 31.0334V29.7669C19.6372 28.7179 18.787 27.8673 17.7376 27.8673Z" fill="#1D1D1D"/>
<path d="M12.0386 31.6666C12.0386 31.3169 11.7551 31.0334 11.4054 31.0334H6.97284C6.62314 31.0334 6.33961 31.3169 6.33961 31.6666C6.33961 32.0163 6.62314 32.2998 6.97284 32.2998H11.4054C11.7551 32.2998 12.0386 32.0163 12.0386 31.6666Z" fill="#1D1D1D"/>
<path d="M17.1044 31.6666C17.1044 31.3169 16.8208 31.0334 16.4711 31.0334H13.9383C13.5886 31.0334 13.305 31.3169 13.305 31.6666C13.305 32.0163 13.5886 32.2998 13.9383 32.2998H16.4711C16.8208 32.2998 17.1044 32.0163 17.1044 31.6666Z" fill="#1D1D1D"/>
<path d="M12.0386 34.8327H14.5715C14.9212 34.8327 15.2047 34.5491 15.2047 34.1994C15.2047 33.8498 14.9212 33.5662 14.5715 33.5662H12.0386C11.6889 33.5662 11.4054 33.8498 11.4054 34.1994C11.4054 34.5491 11.6889 34.8327 12.0386 34.8327Z" fill="#1D1D1D"/>
<path d="M27.8691 5.07131H33.5681C33.9178 5.07131 34.2013 4.78778 34.2013 4.43809C34.2013 4.0884 33.9178 3.80487 33.5681 3.80487H27.8691C27.5194 3.80487 27.2359 4.0884 27.2359 4.43809C27.2359 4.78778 27.5194 5.07131 27.8691 5.07131Z" fill="#1D1D1D"/>
<path d="M27.8691 8.23745H33.5681C33.9178 8.23745 34.2013 7.95392 34.2013 7.60423C34.2013 7.25454 33.9178 6.97101 33.5681 6.97101H27.8691C27.5194 6.97101 27.2359 7.25454 27.2359 7.60423C27.2359 7.95392 27.5194 8.23745 27.8691 8.23745Z" fill="#1D1D1D"/>
<path d="M33.5681 10.1371H30.402C30.0523 10.1371 29.7688 10.4206 29.7688 10.7703C29.7688 11.12 30.0523 11.4035 30.402 11.4035H33.5681C33.9178 11.4035 34.2013 11.12 34.2013 10.7703C34.2013 10.4206 33.9178 10.1371 33.5681 10.1371Z" fill="#1D1D1D"/>
<path d="M33.5681 13.3032H30.402C30.0523 13.3032 29.7688 13.5867 29.7688 13.9364C29.7688 14.2861 30.0523 14.5696 30.402 14.5696H33.5681C33.9178 14.5696 34.2013 14.2861 34.2013 13.9364C34.2013 13.5867 33.9178 13.3032 33.5681 13.3032Z" fill="#1D1D1D"/>
<path d="M29.1356 18.3689C28.7859 18.3689 28.5023 18.6525 28.5023 19.0022C28.5023 19.3519 28.7859 19.6354 29.1356 19.6354H32.9349C33.6343 19.6354 34.2013 19.0683 34.2013 18.3689V17.1025C34.2013 16.4031 33.6343 15.8361 32.9349 15.8361H29.1356C28.7859 15.8361 28.5023 16.1196 28.5023 16.4693C28.5023 16.819 28.7859 17.1025 29.1356 17.1025H32.9349V18.3689H29.1356Z" fill="#1D1D1D"/>
</g>
<defs>
<clipPath id="clip0">
<rect width="38" height="38" fill="white"/>
</clipPath>
</defs>
</svg>
