<svg width="38" height="38" viewBox="0 0 38 38" fill="none" xmlns="http://www.w3.org/2000/svg">
<g clip-path="url(#clip0)">
<path d="M29.2125 29.1334H27.9458V31.6667H16.5458V32.9334H27.9458V34.8334C27.9458 35.8826 27.0951 36.7334 26.0458 36.7334H12.1125C11.4337 36.7324 10.8066 36.3706 10.4658 35.7834L9.36888 36.4167C9.93665 37.3948 10.9816 37.9979 12.1125 38H26.0458C27.794 37.9979 29.2103 36.5815 29.2125 34.8334V29.1334Z" fill="#1D1D1D"/>
<path d="M18.4458 34.2H19.7125V35.4667H18.4458V34.2Z" fill="#1D1D1D"/>
<path d="M22.2458 17.1V15.8333H20.3137C19.9979 11.7918 16.7873 8.58123 12.7458 8.26549V6.33333H11.4792V8.26549C11.0524 8.29827 10.629 8.36445 10.2125 8.4631V5.06667H20.3458V3.8H10.2125V3.16667C10.2125 2.1174 11.0632 1.26667 12.1125 1.26667H26.0458C26.5085 1.26667 26.9553 1.43551 27.3023 1.74167L28.1403 0.791667C27.562 0.281104 26.8171 -0.00030899 26.0458 2.54601e-07H12.1125C10.3643 0.00216497 8.94799 1.41851 8.94582 3.16667V8.86667C6.09397 10.0613 4.15036 12.7508 3.91132 15.8333H1.97916V17.1H3.91286C4.21159 21.1493 7.4299 24.3697 11.4792 24.6709V26.6H12.7458V24.6709C16.7951 24.3697 20.0134 21.1493 20.3121 17.1H22.2458ZM11.4792 22.1667V23.4043C10.5956 23.3248 9.73594 23.0765 8.94582 22.6732V21.5333C8.94582 19.7846 10.3637 18.3667 12.1125 18.3667C13.8613 18.3667 15.2792 19.7846 15.2792 21.5333V22.6732C14.4893 23.0771 13.6293 23.3257 12.7458 23.4061V22.1667H11.4792ZM10.2125 15.2C10.2125 14.1507 11.0632 13.3 12.1125 13.3C13.1618 13.3 14.0125 14.1507 14.0125 15.2C14.0125 16.2493 13.1618 17.1 12.1125 17.1C11.0632 17.1 10.2125 16.2493 10.2125 15.2ZM16.7567 21.6601C16.6884 21.7232 16.6154 21.7739 16.5458 21.8324V21.5333C16.5443 19.8789 15.6215 18.363 14.1526 17.6016C15.17 16.7447 15.5433 15.3432 15.0871 14.0938C14.631 12.8442 13.4426 12.0129 12.1125 12.0129C10.7824 12.0129 9.594 12.8442 9.13786 14.0938C8.68173 15.3432 9.05499 16.7447 10.0724 17.6016C8.60349 18.363 7.6807 19.8789 7.67916 21.5333V21.8355C7.60896 21.7779 7.53598 21.7238 7.46825 21.6632C6.15582 20.4862 5.33786 18.8559 5.17953 17.1H6.41249V15.8333H5.17798C5.48754 12.4898 8.1356 9.84172 11.4792 9.53216V10.7667H12.7458V9.53216C16.0894 9.84172 18.7374 12.4898 19.047 15.8333H17.8125V17.1H19.0454C18.8871 18.8559 18.0692 20.4862 16.7567 21.6632V21.6601Z" fill="#1D1D1D"/>
<path d="M36.1792 11.4C36.5289 11.4 36.8125 11.1164 36.8125 10.7667V3.16666C36.8125 2.8169 36.5289 2.53333 36.1792 2.53333H22.2458C21.8961 2.53333 21.6125 2.8169 21.6125 3.16666V10.7667C21.6125 11.1164 21.8961 11.4 22.2458 11.4H36.1792ZM22.8792 3.79999H35.5458V10.1333H22.8792V3.79999Z" fill="#1D1D1D"/>
<path d="M24.1458 5.06665H26.6792V6.33332H24.1458V5.06665Z" fill="#1D1D1D"/>
<path d="M27.9458 5.06665H34.2792V6.33332H27.9458V5.06665Z" fill="#1D1D1D"/>
<path d="M24.1458 7.59998H34.2792V8.86664H24.1458V7.59998Z" fill="#1D1D1D"/>
<path d="M36.0672 12.6666C35.5768 12.6676 35.1036 12.8475 34.7372 13.1732L29.2125 18.0438V12.6666H27.9458V19H28.1289L24.5259 22.1793C22.1818 22.3135 20.3486 24.2519 20.3458 26.6V27.7173C20.3483 28.3456 19.993 28.9211 19.4295 29.1998C19.1664 29.3309 19.0281 29.6259 19.0956 29.912C19.163 30.198 19.4184 30.4003 19.7125 30.4H24.1458C26.4939 30.3972 28.4323 28.564 28.5665 26.2199L37.5763 16.0093C38.0993 15.4161 38.2264 14.5716 37.9007 13.8507C37.5754 13.1299 36.858 12.6666 36.0672 12.6666ZM24.1458 29.1333H21.2495C21.4885 28.6997 21.6134 28.2124 21.6125 27.7173V26.6C21.6147 24.9501 22.8813 23.5774 24.5259 23.4435L27.3023 26.2199C27.1687 27.8645 25.7957 29.1314 24.1458 29.1333ZM36.6263 15.1715L27.9174 25.042L25.7038 22.829L35.5743 14.1195C35.8696 13.8603 36.3152 13.8748 36.5933 14.1525C36.871 14.4306 36.8855 14.8762 36.6263 15.1715Z" fill="#1D1D1D"/>
<path d="M0.712496 34.8334H14.6458C14.9956 34.8334 15.2792 34.5498 15.2792 34.2V29.1334C15.2792 28.7836 14.9956 28.5 14.6458 28.5H10.2125V25.3334H8.94583V28.5H0.712496C0.36274 28.5 0.0791626 28.7836 0.0791626 29.1334V34.2C0.0791626 34.5498 0.36274 34.8334 0.712496 34.8334ZM1.34583 29.7667H14.0125V33.5667H1.34583V29.7667Z" fill="#1D1D1D"/>
<path d="M2.6125 31.0333H5.77917V32.3H2.6125V31.0333Z" fill="#1D1D1D"/>
<path d="M7.04584 31.0333H12.7458V32.3H7.04584V31.0333Z" fill="#1D1D1D"/>
<path d="M0.712496 8.86666H7.04583C7.39559 8.86666 7.67916 8.58308 7.67916 8.23333V3.16666C7.67916 2.8169 7.39559 2.53333 7.04583 2.53333H0.712496C0.36274 2.53333 0.0791626 2.8169 0.0791626 3.16666V8.23333C0.0791626 8.58308 0.36274 8.86666 0.712496 8.86666ZM1.34583 3.79999H6.4125V7.59999H1.34583V3.79999Z" fill="#1D1D1D"/>
<path d="M2.6125 5.06665H5.14584V6.33332H2.6125V5.06665Z" fill="#1D1D1D"/>
</g>
<defs>
<clipPath id="clip0">
<rect width="38" height="38" fill="white"/>
</clipPath>
</defs>
</svg>
