<svg width="38" height="38" viewBox="0 0 38 38" fill="none" xmlns="http://www.w3.org/2000/svg">
<path d="M35.9196 1.60645H7.81612C7.50448 1.60645 7.25177 1.85916 7.25177 2.1708C7.25177 2.48245 7.50448 2.73516 7.81612 2.73516H35.9195C36.4444 2.73516 36.8712 3.16214 36.8712 3.68695V6.82105H14.3313C14.0197 6.82105 13.767 7.07377 13.767 7.38541C13.767 7.69706 14.0197 7.94977 14.3313 7.94977H36.8713V22.6983H1.28176C1.22862 22.6983 1.17748 22.7061 1.12872 22.7199V7.92832C1.17748 7.94205 1.22862 7.94992 1.28176 7.94992H12.0792C12.3908 7.94992 12.6435 7.69721 12.6435 7.38556C12.6435 7.07392 12.3908 6.8212 12.0792 6.8212H1.28176C1.22862 6.8212 1.17748 6.829 1.12872 6.8428V3.68702C1.12872 3.16214 1.5557 2.73524 2.0805 2.73524H5.09816C5.4098 2.73524 5.66252 2.48252 5.66252 2.17088C5.66252 1.85923 5.4098 1.60652 5.09816 1.60652H2.0805C0.933301 1.60645 0 2.53975 0 3.68702V26.5851C0 27.7323 0.933301 28.6656 2.0805 28.6656H14.8965L13.403 35.7121C13.3678 35.8787 13.4094 36.0522 13.5166 36.1844C13.6238 36.3166 13.7849 36.3935 13.9551 36.3935H24.7057C24.8759 36.3935 25.037 36.3167 25.1442 36.1844C25.2514 36.0522 25.2931 35.8787 25.2578 35.7121L23.7644 28.6656H35.9196C37.0667 28.6656 38 27.7323 38 26.5851V3.68702C38 2.53975 37.0667 1.60645 35.9196 1.60645ZM24.0092 35.2647H14.6516L16.0503 28.6656H22.6105L24.0092 35.2647ZM36.8713 26.5851C36.8713 27.1099 36.4443 27.5369 35.9196 27.5369H23.0679H15.5931H2.0805C1.55562 27.5369 1.12872 27.1099 1.12872 26.5851V23.8056C1.17748 23.8193 1.22862 23.8272 1.28176 23.8272H36.8713V26.5851Z" fill="#1D1D1D"/>
<path d="M32.9128 13.3134C32.8091 12.7154 32.474 12.2001 31.9694 11.8628C31.4647 11.5254 30.8606 11.4127 30.2682 11.5455L16.1424 14.7117C15.8839 14.3147 15.5502 13.9662 15.1512 13.6852C14.3266 13.1044 13.3252 12.8798 12.3316 13.0519C10.419 13.3837 7.71437 16.9182 7.4123 17.3202C7.41089 17.3221 7.40963 17.3243 7.40822 17.3261C7.39976 17.3377 7.39174 17.3496 7.38424 17.3618C7.38172 17.3659 7.3792 17.3699 7.37682 17.374C7.36977 17.386 7.36317 17.3984 7.35701 17.4111C7.35478 17.4157 7.35248 17.4203 7.35033 17.425C7.34483 17.437 7.33994 17.4493 7.33526 17.4617C7.33311 17.4674 7.33095 17.4732 7.32903 17.4789C7.32524 17.4902 7.32205 17.5016 7.31893 17.5131C7.317 17.5204 7.31492 17.5279 7.31329 17.5353C7.31106 17.5454 7.30921 17.5556 7.3075 17.5659C7.30602 17.575 7.30446 17.584 7.30342 17.5931C7.30305 17.5966 7.30223 17.5999 7.30186 17.6034C7.30127 17.6098 7.30134 17.616 7.30097 17.6223C7.30038 17.6316 7.29978 17.6407 7.29963 17.6501C7.29934 17.661 7.29963 17.6716 7.30008 17.6822C7.30038 17.6902 7.30067 17.6983 7.30134 17.7063C7.30231 17.7182 7.30386 17.73 7.30565 17.7418C7.30631 17.7465 7.30654 17.7512 7.30728 17.7559C7.30765 17.758 7.30832 17.7601 7.30869 17.7622C7.31099 17.7748 7.31403 17.7873 7.31722 17.7996C7.31871 17.8055 7.32012 17.8114 7.32183 17.8173C7.32546 17.8298 7.32977 17.842 7.33422 17.8541C7.33622 17.8598 7.33815 17.8654 7.34038 17.871C7.3452 17.8828 7.3507 17.8943 7.35626 17.9058C7.35886 17.9113 7.36131 17.9168 7.36413 17.9223C7.36999 17.9334 7.37652 17.944 7.38306 17.9547C7.3864 17.96 7.38929 17.9655 7.39278 17.9707C7.40013 17.9818 7.40814 17.9923 7.41623 18.0029C7.4195 18.0072 7.42239 18.0116 7.42588 18.0158C7.44956 18.0449 7.47613 18.0715 7.50529 18.0955C7.50782 18.0976 7.51056 18.0994 7.51309 18.1013C7.52541 18.1111 7.53802 18.1206 7.55109 18.1293C7.55168 18.1297 7.55213 18.1301 7.55272 18.1305C7.94563 18.3895 11.2449 20.5236 13.2339 20.5236C13.3698 20.5236 13.4999 20.5135 13.6223 20.4923C15.1529 20.2267 16.3089 19.0689 16.6496 17.6461L31.0183 15.8688C31.6207 15.7943 32.1517 15.4847 32.5132 14.9971C32.8746 14.5095 33.0165 13.9115 32.9128 13.3134ZM12.5243 14.164C13.2209 14.0432 13.923 14.2009 14.501 14.608C14.5078 14.6128 14.5143 14.6181 14.5212 14.6229C13.6364 16.7504 10.6467 17.1015 9.01045 17.1281C10.1079 15.8271 11.6264 14.3198 12.5243 14.164ZM13.4293 19.3803C12.6876 19.5088 11.2384 18.9129 9.92757 18.2199C11.7335 18.0759 14.2038 17.5035 15.3248 15.5485C15.4491 15.7876 15.5375 16.0467 15.5849 16.3197C15.8344 17.7578 14.8674 19.1308 13.4293 19.3803ZM31.6063 14.3249C31.4305 14.5619 31.1724 14.7124 30.8795 14.7487L16.7424 16.4973C16.7334 16.3743 16.7185 16.2507 16.697 16.1268C16.6755 16.0033 16.6482 15.8817 16.6154 15.7624L30.5149 12.6469C30.8027 12.5823 31.0965 12.6371 31.3419 12.8011C31.5872 12.9651 31.7501 13.2155 31.8005 13.5063C31.851 13.7971 31.7821 14.0878 31.6063 14.3249Z" fill="#1D1D1D"/>
</svg>
